<svg width="26" height="20" viewBox="0 0 26 20" fill="none" xmlns="http://www.w3.org/2000/svg">
<path d="M8.5005 0.137634C8.40868 0.209784 8.32997 0.327847 8.32997 0.393436C8.32997 0.682034 8.04137 1.26579 7.73966 1.6003C7.47074 1.8889 7.28708 2.00696 6.70989 2.26932C6.02775 2.57759 5.98184 2.59071 5.40464 2.59071C4.84712 2.59071 4.78153 2.57759 4.3224 2.34147C4.05348 2.21029 3.77144 2.09879 3.68618 2.09879C3.58779 2.09879 3.32543 2.30211 2.91221 2.70222C2.07265 3.51554 1.95459 3.76478 2.23007 4.11241C2.59082 4.5781 2.722 5.46357 2.51867 6.08012C2.3219 6.66387 1.9218 7.4444 1.69879 7.6674C1.39707 7.96912 0.87891 8.25116 0.537841 8.30363C0.0524723 8.37578 0 8.50696 0 9.66791C0.00655903 10.4091 0.0262361 10.6911 0.0918264 10.7764C0.144299 10.842 0.360747 10.9404 0.570636 10.9928C1.40363 11.2093 1.83653 11.6159 2.27598 12.5998C2.5777 13.2557 2.59082 13.3016 2.59082 13.905C2.59082 14.5019 2.58426 14.5478 2.34813 14.9742C2.21039 15.2168 2.09889 15.4989 2.09889 15.5907C2.09889 15.7285 2.26287 15.9318 2.80727 16.4762C3.60747 17.2764 3.72553 17.3223 4.19122 17.014C4.7225 16.6664 5.39152 16.5746 6.03431 16.7648C6.77548 16.9812 7.43138 17.342 7.75278 17.7027C8.04137 18.0241 8.32997 18.6144 8.32997 18.8833C8.32997 18.9424 8.39556 19.0604 8.48083 19.1391C8.62513 19.2769 8.69728 19.2834 9.64834 19.2834C10.4026 19.2769 10.6912 19.2572 10.7765 19.1916C10.8421 19.1391 10.9405 18.9227 10.9929 18.7128C11.1897 17.9716 11.6357 17.4338 12.3244 17.1386C13.3542 16.6926 13.3804 16.6664 13.3804 15.8465C13.3804 15.4005 13.3542 15.2693 13.2558 15.1447L13.1312 14.9873L11.0061 14.9742C9.08426 14.9676 8.83502 14.9545 8.36277 14.8299C6.50656 14.3445 5.08981 12.9868 4.51261 11.1502C4.38143 10.7239 4.36176 10.5271 4.36176 9.64167C4.36176 8.7562 4.38143 8.55943 4.51261 8.13309C5.06357 6.38839 6.3557 5.08314 8.1004 4.51907C8.5333 4.38133 8.70383 4.36821 10.8421 4.33541L13.1312 4.29606L13.2558 4.13864C13.3542 4.01402 13.3804 3.88284 13.3804 3.41059C13.3804 2.70877 13.3083 2.59071 12.7114 2.33491C11.9834 2.02008 11.8653 1.94137 11.5439 1.58718C11.2422 1.26579 10.9536 0.682034 10.9536 0.399996C10.9536 0.340963 10.888 0.222902 10.8027 0.144194C10.6584 0.00645447 10.5863 -0.000104904 9.66145 -0.000104904C8.76287 -0.000104904 8.65792 0.0130119 8.5005 0.137634Z" fill="#2E3750"/>
<path d="M16.4959 1.20672C16.0237 1.40349 15.6039 1.82983 15.4531 2.27584C15.3153 2.66939 15.3219 3.26626 15.4531 3.60733C15.5842 3.92872 15.5842 3.92216 14.8365 4.70268L14.3249 5.24708H12.1473C10.0681 5.24708 9.96314 5.25364 9.83852 5.37827C9.67455 5.54224 9.61551 5.77837 9.66143 6.11944C9.73358 6.6376 9.66799 6.62448 12.3441 6.62448C14.5479 6.62448 14.7119 6.61792 14.948 6.49986C15.0857 6.42771 15.5121 6.02105 15.9122 5.5816L16.6271 4.79451L17.0928 4.78795C17.9324 4.78795 18.5227 4.44688 18.8769 3.77786C19.1196 3.31217 19.1261 2.61035 18.8965 2.1381C18.4505 1.2264 17.4142 0.826297 16.4959 1.20672ZM17.6831 2.19713C18.4046 2.66939 18.0767 3.8041 17.224 3.8041C16.2073 3.8041 15.9843 2.34799 16.9551 2.07907C17.1518 2.0266 17.506 2.07907 17.6831 2.19713Z" fill="#2E3750"/>
<path d="M23.5141 4.34189C23.1599 4.46651 22.773 4.78134 22.5565 5.10929L22.3466 5.43725L20.7134 5.44381C19.2376 5.45036 19.0474 5.45692 18.8375 5.57499C18.6998 5.64058 18.1357 6.15874 17.5782 6.71626L16.5616 7.73947H13.3345C11.0782 7.73947 10.0616 7.75914 9.94349 7.81162C9.85822 7.85753 9.74672 7.97559 9.70081 8.07398C9.59586 8.3429 9.66145 8.83482 9.83199 9.01192C9.96973 9.14966 9.98941 9.14966 13.4001 9.14966C15.2825 9.14966 16.9092 9.12342 17.0207 9.09719C17.1453 9.05783 17.6176 8.64461 18.3391 7.92968L19.4606 6.8212H20.9364H22.4188L22.4975 7.01797C22.7074 7.52958 23.4682 7.96247 24.1372 7.96247C25.1801 7.96247 25.9869 7.16883 26 6.1325C26 5.63402 25.8951 5.32574 25.5802 4.92564C25.2195 4.47307 24.7735 4.26318 24.1766 4.26974C23.9208 4.26974 23.6256 4.30253 23.5141 4.34189ZM24.6882 5.45036C25.1867 5.88326 25.1014 6.59819 24.5177 6.89335C23.9733 7.16883 23.337 6.82776 23.2846 6.23089C23.2518 5.86358 23.2977 5.74552 23.5404 5.50284C23.7699 5.27327 23.829 5.24703 24.1241 5.24703C24.4062 5.24703 24.498 5.27983 24.6882 5.45036Z" fill="#2E3750"/>
<path d="M19.0671 9.20873C18.7063 9.33991 18.3718 9.62195 18.1488 9.98269L17.952 10.2975H13.9707C10.2714 10.2975 9.97625 10.3041 9.84507 10.409C9.6811 10.5468 9.60895 10.9075 9.66798 11.242C9.75325 11.688 9.63518 11.6749 14.0297 11.6749H17.9652L18.0504 11.8323C18.2078 12.1275 18.6473 12.5407 18.949 12.685C19.172 12.7834 19.3819 12.8228 19.7427 12.8228C20.169 12.8228 20.2805 12.7965 20.5888 12.626C21.9727 11.8586 21.9006 9.90398 20.4641 9.25464C20.1165 9.09722 19.4475 9.07755 19.0671 9.20873ZM20.1428 10.1991C20.8708 10.5796 20.674 11.7012 19.8607 11.8389C19.559 11.8914 19.1917 11.7274 18.9949 11.4585C18.8178 11.2224 18.8178 10.7304 18.9884 10.4746C19.2179 10.1139 19.7361 9.99581 20.1428 10.1991Z" fill="#2E3750"/>
<path d="M9.83852 12.9212C9.67455 13.0851 9.61551 13.3213 9.66143 13.6623C9.73358 14.1739 9.69422 14.1674 12.1604 14.1674H14.3315L14.8299 14.6987L15.3284 15.23L15.2104 15.5513C14.8627 16.4696 15.3415 17.565 16.2401 17.8995C17.5847 18.4045 18.9228 17.4338 18.8113 16.0367C18.726 14.9873 17.8405 14.2264 16.8108 14.3248L16.3976 14.3576L15.8269 13.7017C14.9742 12.7375 15.1841 12.79 12.3441 12.79C10.0681 12.79 9.96314 12.7966 9.83852 12.9212ZM17.2699 15.3743C17.9455 15.6628 18.0373 16.5549 17.4273 16.9222C16.8304 17.2895 16.0696 16.85 16.0696 16.1482C16.0696 15.8924 16.3188 15.5382 16.5943 15.4005C16.8698 15.2562 16.9944 15.2562 17.2699 15.3743Z" fill="#2E3750"/>
</svg>
