<svg width="20" height="20" viewBox="0 0 20 20" fill="none" xmlns="http://www.w3.org/2000/svg">
<path d="M9.09 0.0132332C8.19874 0.0662537 7.12063 0.280865 6.40105 0.548498C6.11322 0.657066 6.0501 0.836329 6.21674 1.07619C6.37328 1.30342 6.56769 1.56096 6.64596 1.6468C6.76211 1.77052 6.8227 1.77557 7.1686 1.67205C8.08007 1.39937 8.67593 1.31352 9.62022 1.31352C10.6074 1.31352 11.3295 1.42714 12.2208 1.72255C13.4176 2.1139 14.4831 2.75773 15.3693 3.6187C16.1469 4.37615 16.6418 5.0528 17.1013 5.99204C17.5002 6.80504 17.7426 7.61804 17.8815 8.59767C17.937 8.99155 17.9446 10.1959 17.8941 10.567C17.7148 11.8825 17.3563 12.9177 16.715 13.9756C16.5332 14.276 16.3489 14.5361 16.3237 14.526C16.3136 14.5209 16.1646 14.3543 15.9904 14.1523C15.5637 13.6574 15.541 13.6347 15.4374 13.5994C15.296 13.5539 15.137 13.6322 15.0814 13.7736C15.0587 13.8342 14.6219 15.2052 14.2129 16.5029C14.1094 16.8312 14.0261 17.1215 14.0261 17.1468C14.0261 17.2225 14.1195 17.3538 14.2028 17.3967C14.2735 17.4321 14.3265 17.4295 14.9552 17.3614C17.6063 17.066 17.9219 17.0281 17.9951 16.9902C18.0708 16.9498 18.1415 16.8236 18.1415 16.7226C18.1415 16.6342 18.0784 16.5509 17.629 16.0358L17.2099 15.5561L17.2982 15.4425C17.4422 15.2506 17.8487 14.632 17.9749 14.4098C19.2045 12.2461 19.5554 9.71112 18.9621 7.30748C18.1062 3.84593 15.3844 1.12669 11.9254 0.278341C11.0367 0.0586796 9.98884 -0.0372639 9.09 0.0132332Z" fill="#2E3750"/>
<path d="M4.4695 1.87146C4.31801 1.88913 3.57319 1.97245 2.81574 2.05577C2.05829 2.14161 1.40435 2.21483 1.35891 2.22241C1.18469 2.25271 1.0736 2.41682 1.11147 2.58599C1.1241 2.64658 1.5104 3.1162 1.95982 3.61612L2.03304 3.69944L1.94467 3.81558C1.35386 4.5907 0.831217 5.57034 0.513087 6.502C0.0611418 7.83512 -0.0928731 9.21873 0.0535673 10.6629C0.207582 12.1753 0.768096 13.718 1.62654 14.9955C2.43196 16.1898 3.55299 17.2376 4.81036 17.9698C5.75969 18.5227 6.94637 18.9469 8.0371 19.1237C9.17832 19.3105 10.4256 19.2878 11.5264 19.0631C12.0465 18.957 12.7535 18.755 12.9403 18.6591C13.0918 18.5808 13.1549 18.4117 13.0868 18.2728C13.0161 18.1339 12.5742 17.5633 12.5162 17.5355C12.4202 17.4926 12.3243 17.5052 12.0112 17.6012C10.9179 17.9319 9.65047 18.0329 8.49662 17.8739C6.00208 17.5355 3.79285 16.0787 2.48751 13.9124C1.88912 12.9176 1.53565 11.8976 1.36143 10.668C1.30336 10.2716 1.29579 9.04704 1.34628 8.67336C1.5407 7.25188 1.96487 6.11318 2.71979 4.97953C2.80311 4.85076 2.88138 4.73714 2.89148 4.72705C2.90158 4.71695 3.09347 4.91641 3.31565 5.17394C3.66156 5.56781 3.73983 5.64356 3.81052 5.65871C3.92919 5.67891 4.03523 5.65113 4.09835 5.58549C4.12613 5.55519 4.21197 5.32796 4.29277 5.07547C4.92902 3.05813 5.21433 2.14161 5.21433 2.11384C5.21433 2.04062 5.12849 1.90175 5.06032 1.86893C4.977 1.82601 4.85075 1.82601 4.4695 1.87146Z" fill="#2E3750"/>
<path d="M8.45114 4.57297C8.31732 4.66639 8.31985 4.6159 8.31985 6.55244V8.34508H6.49944H4.67903L4.60581 8.4183L4.53259 8.49152V9.60497C4.53259 10.3498 4.54269 10.7361 4.56037 10.7765C4.57551 10.8093 4.61844 10.8548 4.65883 10.8775C4.72196 10.9154 4.89617 10.9204 6.52469 10.9204H8.31985L8.3249 12.7307C8.33247 14.4981 8.33247 14.5461 8.38297 14.6117C8.41074 14.6496 8.46629 14.6925 8.50668 14.7077C8.55213 14.7228 8.96368 14.7329 9.62519 14.7329C10.5266 14.7329 10.6856 14.7279 10.7563 14.6925C10.9255 14.6117 10.9204 14.6799 10.9204 12.7029V10.9204H12.7257H14.5284L14.6193 10.8421L14.7077 10.7639V9.62769V8.49152L14.6345 8.4183L14.5612 8.34508H12.7408H10.9204V6.55244C10.9204 5.00977 10.9154 4.74719 10.8826 4.68407C10.8018 4.52753 10.8396 4.53258 9.62014 4.53258C8.65312 4.53258 8.50163 4.53763 8.45114 4.57297Z" fill="#2E3750"/>
</svg>
