<svg width="19" height="19" viewBox="0 0 19 19" fill="none" xmlns="http://www.w3.org/2000/svg">
<path d="M6.2883 0.0713921C4.84439 0.539509 4.30374 2.25374 5.21361 3.4537L5.46415 3.78995L5.10152 3.96797C4.69934 4.16577 3.97408 4.8119 3.75651 5.16134C3.59827 5.42507 3.62464 5.67561 3.83563 5.78769C4.0532 5.89978 4.251 5.80747 4.51473 5.47122C5.05537 4.77234 5.77403 4.41631 6.81575 4.324C8.0289 4.21851 8.71459 3.71743 9.00469 2.71526C9.30139 1.7065 8.76734 0.592255 7.79814 0.157104C7.40914 -0.00772619 6.6707 -0.0538788 6.2883 0.0713921ZM7.48826 0.895542C8.49702 1.35047 8.58273 2.70208 7.6399 3.32184C7.40914 3.48007 7.29705 3.50645 6.92784 3.50645C6.55862 3.50645 6.44653 3.48007 6.21577 3.32184C5.47074 2.83394 5.32569 1.89771 5.8927 1.25157C6.15643 0.95488 6.54543 0.770271 6.92784 0.770271C7.09267 0.770271 7.34321 0.82961 7.48826 0.895542Z" fill="#2E3750"/>
<path d="M11.431 0.467072C10.3168 0.829698 9.67065 2.00988 9.98712 3.10435C10.297 4.15267 10.9629 4.62738 12.275 4.72628C12.9211 4.77243 13.0596 4.8054 13.4815 5.01638C13.8112 5.17461 14.0749 5.37241 14.332 5.64932C14.721 6.0647 14.8463 6.11085 15.0903 5.93942C15.3408 5.76141 15.2815 5.51087 14.8793 5.07572C14.5892 4.75924 13.9233 4.28453 13.6266 4.17904C13.587 4.15926 13.62 4.08014 13.6991 3.99443C13.7782 3.90872 13.9233 3.67137 14.0222 3.47357C14.187 3.16369 14.2134 3.03183 14.2134 2.55052C14.2134 2.06922 14.187 1.93735 14.0288 1.62088C13.8178 1.17914 13.3694 0.750579 12.9409 0.552783C12.5519 0.387954 11.8134 0.341801 11.431 0.467072ZM12.5848 1.27144C13.587 1.68681 13.7518 2.99227 12.8815 3.64499C12.2024 4.15926 11.2266 3.92191 10.8376 3.14391C10.2772 2.04285 11.4376 0.790139 12.5848 1.27144Z" fill="#2E3750"/>
<path d="M8.8597 4.81853C7.29711 5.3262 6.83559 7.19867 7.96962 8.4316L8.12785 8.60302L7.85753 8.74148C7.46194 8.94587 6.90811 9.53266 6.67076 10.0008C6.42022 10.515 6.40703 10.7524 6.6312 10.8975C6.90811 11.0821 7.06635 10.9766 7.34986 10.4293C7.63336 9.87551 7.94324 9.56563 8.51026 9.29531C8.82673 9.13707 8.952 9.11729 9.49924 9.11729C10.0465 9.11729 10.1717 9.13707 10.4882 9.29531C11.0552 9.56563 11.3651 9.87551 11.6486 10.4293C11.9321 10.9766 12.0904 11.0821 12.3673 10.8975C12.5914 10.7524 12.5783 10.515 12.3277 10.0008C12.0904 9.53266 11.5365 8.94587 11.1409 8.74148L10.8706 8.60302L11.0289 8.4316C11.6882 7.71294 11.8464 6.75693 11.4442 5.93937C11.2464 5.53059 10.7915 5.09544 10.3695 4.90424C9.98054 4.73941 9.2421 4.69326 8.8597 4.81853ZM10.0597 5.64268C11.0684 6.09761 11.1541 7.44921 10.2113 8.06897C9.98054 8.22721 9.86846 8.25358 9.49924 8.25358C9.13002 8.25358 9.01794 8.22721 8.78717 8.06897C8.04214 7.58108 7.89709 6.64484 8.46411 5.99871C8.72783 5.70201 9.11683 5.51741 9.49924 5.51741C9.66407 5.51741 9.91461 5.57674 10.0597 5.64268Z" fill="#2E3750"/>
<path d="M1.6005 5.25368C1.42248 5.35917 1.28402 5.60312 0.796128 6.61847C0.466469 7.29757 0.156588 7.99645 0.103843 8.18106C-0.0346143 8.64918 -0.0346143 11.6557 0.103843 12.1963C0.275266 12.8622 0.499435 13.1853 2.04884 15.0248C2.87958 16.0138 3.56527 16.8643 3.56527 16.9039C3.56527 16.9632 3.42681 16.9896 3.10375 16.9896C2.42465 16.9896 2.3785 17.0555 2.3785 17.9654C2.3785 18.75 2.45761 18.9675 2.74771 18.9675C3.04441 18.9675 3.16968 18.7565 3.16968 18.2423V17.7808H5.54323H7.91678V18.2291C7.91678 18.7631 8.02886 18.9675 8.31237 18.9675C8.63544 18.9675 8.70796 18.7763 8.70796 17.9654C8.70796 17.128 8.63544 16.9896 8.18051 16.9896H7.91678V15.3215C7.91678 13.5215 7.85085 13.0402 7.55415 12.5392C7.46844 12.3941 6.61792 11.4974 5.66191 10.5546C4.00042 8.90631 3.91471 8.82719 3.58505 8.74808C3.39385 8.70852 3.23561 8.63599 3.23561 8.58984C3.23561 8.55028 3.32792 8.20743 3.43341 7.82503C3.75647 6.70419 3.67735 6.13058 3.13671 5.65587C2.84002 5.39873 2.25322 5.12182 1.99609 5.12182C1.89719 5.12182 1.71918 5.18116 1.6005 5.25368ZM2.29938 6.03827C2.58948 6.18992 2.74112 6.34156 2.84002 6.59869C2.89936 6.75693 2.87299 6.92835 2.67519 7.64042C2.54992 8.10854 2.44443 8.57006 2.44443 8.66236C2.44443 8.78104 2.36531 8.90631 2.1807 9.06455C1.78511 9.4008 1.62687 9.75024 1.62687 10.2645C1.62687 10.548 1.66643 10.7722 1.74555 10.9238C1.90379 11.2271 3.76307 13.0996 3.90812 13.0996C4.22459 13.0996 4.41579 12.8161 4.28393 12.5524C4.24437 12.4732 3.79603 11.9853 3.28176 11.4711L2.35872 10.5348L2.39827 10.225C2.46421 9.62497 3.09056 9.28872 3.57846 9.592C3.94768 9.82277 6.76297 12.7106 6.93439 13.0337C7.08604 13.3238 7.09263 13.3831 7.11241 15.1567L7.13219 16.9896H5.74762H4.35645V16.772C4.35645 16.5874 4.13888 16.2973 2.77409 14.682C1.86423 13.5941 1.1126 12.6512 1.0137 12.4403L0.829094 12.0776L0.809315 10.2711L0.789535 8.46457L1.39611 7.19208C1.72577 6.48661 2.01587 5.913 2.02906 5.913C2.04224 5.913 2.16092 5.97234 2.29938 6.03827Z" fill="#2E3750"/>
<path d="M16.3758 5.31961C15.9472 5.53059 15.6044 5.86025 15.4593 6.21628C15.3143 6.55913 15.3473 7.07999 15.5648 7.8448C15.6769 8.2338 15.7626 8.57665 15.7626 8.60961C15.7626 8.64258 15.6637 8.69532 15.5517 8.7151C15.433 8.74148 15.2286 8.82059 15.1033 8.87993C14.8132 9.03158 11.5298 12.3348 11.3848 12.6183C11.1408 13.1062 11.0815 13.6073 11.0815 15.3215V16.9896H10.8177C10.3628 16.9896 10.2903 17.128 10.2903 17.9785C10.2903 18.6181 10.3035 18.717 10.4221 18.8357C10.587 19.0005 10.7848 19.0005 10.9496 18.8357C11.0551 18.7302 11.0815 18.6181 11.0815 18.2423V17.7807H13.455H15.8286V18.2423C15.8286 18.6181 15.8549 18.7302 15.9604 18.8357C16.1187 18.9939 16.2769 19.0005 16.4747 18.862C16.6132 18.7697 16.6198 18.7104 16.6198 18.0049C16.6198 17.0489 16.5802 16.9896 15.8879 16.9896C15.5121 16.9896 15.4264 16.9698 15.4462 16.8907C15.4593 16.8379 16.1187 16.0204 16.9164 15.0709C18.4395 13.271 18.723 12.8556 18.8878 12.2095C19.0329 11.6557 19.0395 8.66236 18.8944 8.18105C18.8417 7.99644 18.5318 7.29757 18.2021 6.61847C17.4307 5.01632 17.2593 4.89764 16.3758 5.31961ZM17.5824 7.14592L18.1692 8.37226V10.2249V12.0776L17.9845 12.4403C17.8856 12.6512 17.134 13.5941 16.2242 14.6819C14.8594 16.2973 14.6418 16.5874 14.6418 16.772V16.9896H13.2506H11.8661L11.8858 15.1896C11.9056 13.4886 11.9122 13.3765 12.0573 13.0732C12.1628 12.8359 12.5847 12.3677 13.666 11.2799C14.4704 10.4689 15.2418 9.72386 15.3802 9.63156C15.8879 9.27552 16.534 9.592 16.6 10.2249L16.6395 10.5348L15.7165 11.4711C15.2022 11.9853 14.7539 12.4732 14.7143 12.5523C14.5825 12.8161 14.7737 13.0996 15.0901 13.0996C15.2352 13.0996 17.0945 11.2271 17.2527 10.9238C17.3318 10.7722 17.3714 10.548 17.3714 10.2645C17.3714 9.75023 17.2131 9.40079 16.8175 9.06454C16.6329 8.90631 16.5538 8.78103 16.5538 8.66236C16.5538 8.56346 16.4483 8.10853 16.3231 7.64701C16.0725 6.73055 16.0791 6.53275 16.3758 6.26243C16.5143 6.13716 16.8703 5.91959 16.956 5.91299C16.9758 5.91299 17.2593 6.46682 17.5824 7.14592Z" fill="#2E3750"/>
</svg>
