<svg width="20" height="20" viewBox="0 0 20 20" fill="none" xmlns="http://www.w3.org/2000/svg">
<path d="M9.09013 0.012989C8.19886 0.0660095 7.12075 0.280621 6.40118 0.548254C6.11334 0.656822 6.05022 0.836084 6.21686 1.07594C6.3734 1.30318 6.56782 1.56071 6.64609 1.64656C6.76223 1.77027 6.82282 1.77532 7.16873 1.67181C8.08019 1.39912 8.67605 1.31328 9.62034 1.31328C10.6076 1.31328 11.3297 1.4269 12.2209 1.7223C13.4177 2.11365 14.4832 2.75748 15.3694 3.61845C16.147 4.3759 16.6419 5.05256 17.1014 5.9918C17.5004 6.8048 17.7427 7.61779 17.8816 8.59743C17.9371 8.9913 17.9447 10.1956 17.8942 10.5668C17.715 11.8822 17.3564 12.9174 16.7151 13.9753C16.5333 14.2758 16.349 14.5358 16.3238 14.5257C16.3137 14.5207 16.1647 14.3541 15.9905 14.1521C15.5638 13.6572 15.5411 13.6345 15.4376 13.5991C15.2962 13.5537 15.1371 13.6319 15.0816 13.7733C15.0588 13.8339 14.622 15.2049 14.213 16.5027C14.1095 16.8309 14.0262 17.1213 14.0262 17.1465C14.0262 17.2223 14.1196 17.3536 14.2029 17.3965C14.2736 17.4318 14.3266 17.4293 14.9553 17.3611C17.6064 17.0657 17.922 17.0279 17.9952 16.99C18.071 16.9496 18.1417 16.8233 18.1417 16.7223C18.1417 16.634 18.0785 16.5507 17.6291 16.0356L17.21 15.5559L17.2984 15.4423C17.4423 15.2504 17.8488 14.6318 17.975 14.4096C19.2046 12.2458 19.5556 9.71088 18.9622 7.30724C18.1063 3.84569 15.3845 1.12644 11.9255 0.278097C11.0368 0.0584354 9.98897 -0.037508 9.09013 0.012989Z" fill="#2E3750"/>
<path d="M4.4695 1.87121C4.31801 1.88889 3.57319 1.97221 2.81574 2.05552C2.05829 2.14137 1.40435 2.21459 1.35891 2.22216C1.18469 2.25246 1.0736 2.41658 1.11147 2.58574C1.1241 2.64634 1.5104 3.11596 1.95982 3.61587L2.03304 3.69919L1.94467 3.81534C1.35386 4.59046 0.831217 5.5701 0.513087 6.50176C0.0611418 7.83487 -0.0928731 9.21848 0.0535673 10.6627C0.207582 12.1751 0.768096 13.7177 1.62654 14.9953C2.43196 16.1896 3.55299 17.2374 4.81036 17.9696C5.75969 18.5225 6.94637 18.9467 8.0371 19.1234C9.17832 19.3102 10.4256 19.2875 11.5264 19.0628C12.0465 18.9568 12.7535 18.7548 12.9403 18.6588C13.0918 18.5806 13.1549 18.4114 13.0868 18.2725C13.0161 18.1337 12.5742 17.5631 12.5162 17.5353C12.4202 17.4924 12.3243 17.505 12.0112 17.6009C10.9179 17.9317 9.65047 18.0327 8.49662 17.8736C6.00208 17.5353 3.79285 16.0785 2.48751 13.9122C1.88912 12.9174 1.53565 11.8973 1.36143 10.6677C1.30336 10.2713 1.29579 9.04679 1.34628 8.67312C1.5407 7.25164 1.96487 6.11294 2.71979 4.97928C2.80311 4.85052 2.88138 4.7369 2.89148 4.7268C2.90158 4.7167 3.09347 4.91616 3.31565 5.1737C3.66156 5.56757 3.73983 5.64332 3.81052 5.65847C3.92919 5.67866 4.03523 5.65089 4.09835 5.58525C4.12613 5.55495 4.21197 5.32771 4.29277 5.07523C4.92902 3.05788 5.21433 2.14137 5.21433 2.1136C5.21433 2.04038 5.12849 1.90151 5.06032 1.86869C4.977 1.82577 4.85075 1.82577 4.4695 1.87121Z" fill="#2E3750"/>
</svg>
