<svg width="23" height="23" viewBox="0 0 23 23" fill="none" xmlns="http://www.w3.org/2000/svg">
<path d="M19.4946 0.123583C19.2928 0.219415 18.4606 1.03146 15.3334 4.15859C13.1848 6.30724 11.4397 8.07255 11.4498 8.08264C11.4649 8.09273 12.282 8.08769 13.2705 8.07255L15.0661 8.04734L18.1025 5.09673C20.473 2.79173 21.164 2.09065 21.2599 1.89899C21.4263 1.5661 21.4364 1.04659 21.28 0.728835C21.164 0.48169 20.8463 0.174021 20.5991 0.0731459C20.3268 -0.042861 19.7921 -0.017642 19.4946 0.123583ZM19.3584 2.81191L19.0961 3.07923L18.7027 2.69086L18.3093 2.30249L18.5715 2.03517L18.8338 1.76785L19.2272 2.15622L19.6206 2.54459L19.3584 2.81191ZM18.1479 4.02241L17.8856 4.28973L17.4922 3.90136L17.0988 3.51299L17.361 3.24567L17.6233 2.97835L18.0167 3.36672L18.4101 3.75509L18.1479 4.02241ZM16.9374 5.23292L16.6751 5.50024L16.2817 5.11187L15.8883 4.7235L16.1505 4.45618L16.4128 4.18886L16.8062 4.57723L17.1996 4.9656L16.9374 5.23292ZM15.7269 6.44342L15.4646 6.71074L15.0712 6.32237L14.6778 5.934L14.94 5.66668L15.2023 5.39936L15.5957 5.78773L15.9891 6.1761L15.7269 6.44342ZM14.5164 7.65392L14.2541 7.92124L13.8607 7.53287L13.4673 7.1445L13.7295 6.87718L13.9918 6.60986L14.3852 6.99823L14.7786 7.3866L14.5164 7.65392Z" fill="white"/>
<path d="M9.99639 5.34912C9.79464 5.40461 9.44662 5.54079 9.2146 5.65679C8.82119 5.86359 8.69005 5.9796 6.28418 8.37034C3.50506 11.1343 3.53028 11.1041 3.53028 11.7043C3.53028 12.481 4.06492 13.0106 4.84166 13.0156C5.45196 13.0156 5.30064 13.1468 9.43149 9.0109L13.1891 5.24825L11.7768 5.25329C10.5562 5.25329 10.3141 5.26842 9.99639 5.34912Z" fill="white"/>
<path d="M17.5527 6.66049L16.1152 8.0677L17.7443 8.07274H19.3684V8.47624V8.87974H15.3586C11.4194 8.87974 11.3488 8.87974 11.0714 8.98566C9.76005 9.47491 9.76005 11.5126 11.0714 12.0018C11.3438 12.1027 11.4396 12.1078 13.9161 12.1078C15.5604 12.1078 16.5338 12.1279 16.6297 12.1582C16.7154 12.1935 16.9424 12.3952 17.1693 12.6575C18.1277 13.7571 18.9851 14.4632 19.9888 14.9625C20.7605 15.3509 21.7692 15.6434 22.6116 15.7191L22.9999 15.7544V10.4988V5.24823H20.9976L18.9901 5.25328L17.5527 6.66049Z" fill="white"/>
<path d="M4.62513 14.8718L0 19.497V21.0504V22.5989H0.146269C0.675864 22.5989 1.76027 22.3013 2.42101 21.9735C3.22801 21.575 3.5962 21.2825 4.85714 20.0316L6.05252 18.8463V17.9334C6.05252 17.429 6.07774 16.9499 6.10295 16.8692C6.13322 16.7784 6.98561 15.9159 8.29699 14.6348L10.4456 12.5517L10.1178 12.2491C9.59828 11.775 9.33096 11.2 9.33096 10.5594C9.33096 10.3829 9.31583 10.2417 9.29061 10.2417C9.27044 10.2417 7.17223 12.3247 4.62513 14.8718ZM9.27044 12.8997L9.00816 13.167L8.61475 12.7787L8.22134 12.3903L8.48361 12.123L8.74589 11.8557L9.1393 12.244L9.53271 12.6324L9.27044 12.8997ZM8.05993 14.1102L7.79766 14.3775L7.40425 13.9892L7.01083 13.6008L7.27311 13.3335L7.53538 13.0662L7.9288 13.4545L8.32221 13.8429L8.05993 14.1102ZM5.43213 18.0645C5.40187 18.1553 2.87999 20.309 2.54206 20.5309C2.16377 20.7882 1.23068 21.2623 1.03902 21.2976C0.963359 21.3077 0.923009 21.2471 0.827177 20.9697L0.711171 20.6268L0.862484 20.5713C1.19537 20.4553 1.90654 20.077 2.24448 19.8349C2.44118 19.6987 3.13218 19.1187 3.78282 18.5437L4.96811 17.5047L5.20516 17.767C5.3363 17.9132 5.44222 18.0494 5.43213 18.0645Z" fill="white"/>
<path d="M9.63845 14.3775C8.21106 15.7747 8.11523 15.8806 8.06479 16.1076C7.96896 16.506 8.1001 17.0104 8.38255 17.3281C8.6196 17.6055 8.97771 17.7569 9.38121 17.7569C9.96125 17.7569 10.0117 17.7216 12.0292 15.694L13.8449 13.8732L14.1072 14.1354L14.3745 14.4028L12.5386 16.2437C10.511 18.2713 10.4959 18.2915 10.4908 18.8665C10.4908 19.2801 10.6472 19.6331 10.9397 19.8803C11.1869 20.0972 11.434 20.1779 11.8325 20.1779C12.3772 20.1779 12.4529 20.1173 14.4502 18.115L16.266 16.2942L16.5282 16.5564L16.7955 16.8187L14.9344 18.69C13.623 20.0064 13.048 20.6116 12.9925 20.7529C12.8917 20.995 12.8866 21.5851 12.9825 21.812C13.0833 22.0592 13.4112 22.3971 13.6432 22.503C13.7693 22.5636 13.966 22.5989 14.1728 22.5989C14.7932 22.5989 14.8033 22.5888 16.6695 20.5158C17.7791 19.2801 18.3793 18.6496 18.4802 18.6143C18.5609 18.5891 19.0905 18.5639 19.6705 18.5639C20.5431 18.5639 20.7751 18.5487 21.1029 18.463C21.6476 18.3268 22.2277 18.0091 22.6463 17.6207L22.9994 17.2928V16.9045V16.5111L22.6161 16.4808C21.0273 16.3446 19.3225 15.6385 18.0313 14.5793C17.6782 14.2868 17.1436 13.7521 16.6695 13.2074L16.4173 12.9249L13.7844 12.9048L11.1516 12.8896L9.63845 14.3775Z" fill="white"/>
</svg>
