<svg width="20" height="20" viewBox="0 0 20 20" fill="none" xmlns="http://www.w3.org/2000/svg">
<path d="M9.09013 0.0137215C8.19886 0.0667419 7.12075 0.281353 6.40118 0.548986C6.11334 0.657555 6.05022 0.836817 6.21686 1.07668C6.3734 1.30391 6.56782 1.56145 6.64609 1.64729C6.76223 1.77101 6.82282 1.77606 7.16873 1.67254C8.08019 1.39986 8.67605 1.31401 9.62034 1.31401C10.6076 1.31401 11.3297 1.42763 12.2209 1.72303C13.4177 2.11438 14.4832 2.75822 15.3694 3.61919C16.147 4.37664 16.6419 5.05329 17.1014 5.99253C17.5004 6.80553 17.7427 7.61853 17.8816 8.59816C17.9371 8.99203 17.9447 10.1964 17.8942 10.5675C17.715 11.883 17.3564 12.9182 16.7151 13.9761C16.5333 14.2765 16.349 14.5366 16.3238 14.5265C16.3137 14.5214 16.1647 14.3548 15.9905 14.1528C15.5638 13.6579 15.5411 13.6352 15.4376 13.5999C15.2962 13.5544 15.1371 13.6327 15.0816 13.7741C15.0588 13.8347 14.622 15.2057 14.213 16.5034C14.1095 16.8316 14.0262 17.122 14.0262 17.1473C14.0262 17.223 14.1196 17.3543 14.2029 17.3972C14.2736 17.4326 14.3266 17.43 14.9553 17.3619C17.6064 17.0665 17.922 17.0286 17.9952 16.9907C18.071 16.9503 18.1417 16.8241 18.1417 16.7231C18.1417 16.6347 18.0785 16.5514 17.6291 16.0363L17.21 15.5566L17.2984 15.443C17.4423 15.2511 17.8488 14.6325 17.975 14.4103C19.2046 12.2465 19.5556 9.71161 18.9622 7.30797C18.1063 3.84642 15.3845 1.12717 11.9255 0.27883C11.0368 0.0591679 9.98897 -0.0367756 9.09013 0.0137215Z" fill="white"/>
<path d="M4.4695 1.87194C4.31801 1.88962 3.57319 1.97294 2.81574 2.05626C2.05829 2.1421 1.40435 2.21532 1.35891 2.2229C1.18469 2.25319 1.0736 2.41731 1.11147 2.58647C1.1241 2.64707 1.5104 3.11669 1.95982 3.61661L2.03304 3.69993L1.94467 3.81607C1.35386 4.59119 0.831217 5.57083 0.513087 6.50249C0.0611418 7.83561 -0.0928731 9.21922 0.0535673 10.6634C0.207582 12.1758 0.768096 13.7185 1.62654 14.996C2.43196 16.1903 3.55299 17.2381 4.81036 17.9703C5.75969 18.5232 6.94637 18.9474 8.0371 19.1241C9.17832 19.311 10.4256 19.2883 11.5264 19.0635C12.0465 18.9575 12.7535 18.7555 12.9403 18.6596C13.0918 18.5813 13.1549 18.4121 13.0868 18.2733C13.0161 18.1344 12.5742 17.5638 12.5162 17.536C12.4202 17.4931 12.3243 17.5057 12.0112 17.6017C10.9179 17.9324 9.65047 18.0334 8.49662 17.8743C6.00208 17.536 3.79285 16.0792 2.48751 13.9129C1.88912 12.9181 1.53565 11.8981 1.36143 10.6685C1.30336 10.2721 1.29579 9.04753 1.34628 8.67385C1.5407 7.25237 1.96487 6.11367 2.71979 4.98002C2.80311 4.85125 2.88138 4.73763 2.89148 4.72753C2.90158 4.71743 3.09347 4.9169 3.31565 5.17443C3.66156 5.5683 3.73983 5.64405 3.81052 5.6592C3.92919 5.6794 4.03523 5.65162 4.09835 5.58598C4.12613 5.55568 4.21197 5.32844 4.29277 5.07596C4.92902 3.05862 5.21433 2.1421 5.21433 2.11433C5.21433 2.04111 5.12849 1.90224 5.06032 1.86942C4.977 1.8265 4.85075 1.8265 4.4695 1.87194Z" fill="white"/>
<path d="M8.45126 4.57346C8.31744 4.66688 8.31997 4.61638 8.31997 6.55293V8.34557H6.49956H4.67916L4.60594 8.41879L4.53271 8.49201V9.60546C4.53271 10.3503 4.54281 10.7366 4.56049 10.777C4.57564 10.8098 4.61856 10.8553 4.65896 10.878C4.72208 10.9158 4.89629 10.9209 6.52481 10.9209H8.31997L8.32502 12.7312C8.33259 14.4986 8.33259 14.5466 8.38309 14.6122C8.41086 14.6501 8.46641 14.693 8.50681 14.7082C8.55225 14.7233 8.9638 14.7334 9.62531 14.7334C10.5267 14.7334 10.6857 14.7283 10.7564 14.693C10.9256 14.6122 10.9205 14.6804 10.9205 12.7034V10.9209H12.7258H14.5285L14.6194 10.8426L14.7078 10.7644V9.62818V8.49201L14.6346 8.41879L14.5614 8.34557H12.741H10.9205V6.55293C10.9205 5.01026 10.9155 4.74767 10.8827 4.68455C10.8019 4.52801 10.8398 4.53306 9.62026 4.53306C8.65325 4.53306 8.50176 4.53811 8.45126 4.57346Z" fill="white"/>
</svg>
