<svg width="18" height="19" viewBox="0 0 18 19" fill="none" xmlns="http://www.w3.org/2000/svg">
<path d="M9.10938 0.00390625C9.61791 0.015047 9.70977 0.0264935 10.0098 0.123047C11.1732 0.505553 11.9967 1.37455 12.3369 2.57031C12.4064 2.82272 12.4206 2.94936 12.417 3.45801C12.417 4.11512 12.3586 4.41967 12.1465 4.88379C12.0843 5.01376 12.0361 5.1328 12.0361 5.15137C12.0389 5.16987 12.6095 5.18457 13.3467 5.18457C14.3669 5.18457 14.7035 5.19941 14.8828 5.24023C15.4938 5.38878 15.9883 5.81969 16.2188 6.41016C16.292 6.60026 16.497 7.77442 17.1553 11.7646C17.6195 14.5733 17.9993 16.9597 18 17.0752C18 17.1828 17.9745 17.3759 17.9453 17.5059C17.7843 18.204 17.202 18.802 16.5361 18.958C16.2946 19.0136 1.70543 19.0136 1.46387 18.958C0.648162 18.7687 0.00389156 17.9374 0 17.0723C0 16.8829 1.64265 6.81853 1.71582 6.57715C1.85119 6.11296 2.25041 5.6228 2.66016 5.41113C3.07333 5.20332 3.21272 5.18457 4.66113 5.18457C5.69019 5.18457 5.96534 5.17364 5.95215 5.13672C5.60099 4.26416 5.54669 4.00005 5.57227 3.32812C5.5869 2.93448 5.61262 2.75585 5.68945 2.49219C6.02237 1.34863 6.88517 0.464783 8.01172 0.123047C8.18338 0.0711434 8.37374 0.0190707 8.43262 0.0078125C8.49479 0.00038839 8.79853 -0.00350864 9.10938 0.00390625ZM12.1016 11C11.5844 11.0001 11.1619 11.141 10.834 11.4229C10.5059 11.705 10.3418 12.0637 10.3418 12.498C10.3418 12.9337 10.5045 13.2937 10.8311 13.5771C11.1591 13.8593 11.5786 14 12.0889 14C12.2653 14 12.4329 13.9811 12.5918 13.9434C12.7521 13.9057 12.905 13.8482 13.0508 13.7715L13.0557 13.1455C12.9202 13.256 12.773 13.3396 12.6143 13.3955C12.4553 13.4501 12.2828 13.4775 12.0977 13.4775C11.7726 13.4775 11.5162 13.3893 11.3281 13.2139C11.14 13.037 11.0459 12.7984 11.0459 12.498C11.0459 12.1912 11.147 11.9467 11.3496 11.7646C11.5522 11.5827 11.8241 11.4913 12.165 11.4912C12.3313 11.4912 12.488 11.5173 12.6338 11.5693C12.7794 11.62 12.9212 11.7011 13.0596 11.8115L13.084 11.1992C12.9267 11.1317 12.7672 11.0813 12.6055 11.0488C12.4436 11.0163 12.2751 11 12.1016 11ZM5.08398 11.0684V13.9238H5.76855V11.0684H5.08398ZM6.71094 11.0684L6.22363 13.9238H6.87305L7.10449 12.2012L7.10742 12.1934C7.13362 12.0011 7.14648 11.8386 7.14648 11.7061V11.6221C7.18148 11.769 7.20859 11.8813 7.22754 11.958C7.2479 12.0345 7.26078 12.0818 7.2666 12.0986L7.93359 13.9238H8.31836L8.99609 12.0986C9.01212 12.0571 9.0299 11.9955 9.04883 11.915C9.06924 11.8331 9.09044 11.7359 9.1123 11.624C9.11085 11.6357 9.10985 11.6495 9.1084 11.665V11.7314C9.1084 11.7874 9.11136 11.8481 9.11719 11.9131C9.12302 11.978 9.13393 12.0741 9.15137 12.2012L9.38574 13.9238H10.0352L9.5459 11.0684H8.83887L8.21094 12.7461C8.1979 12.7786 8.1844 12.8297 8.16992 12.8994C8.15535 12.9683 8.14252 13.0474 8.13086 13.1357C8.11774 13.0487 8.10295 12.9709 8.08691 12.9033C8.07239 12.836 8.058 12.785 8.04492 12.75L7.42871 11.0684H6.71094ZM9.23828 2.06934C8.98584 2.02106 8.96679 2.02066 8.70703 2.08008C8.42912 2.14323 8.21701 2.26222 8.00488 2.47754C7.32083 3.17199 7.52971 4.32686 8.41504 4.75391C8.62694 4.85772 8.6892 4.86914 9 4.86914C9.3108 4.86914 9.37306 4.85772 9.58496 4.75391C10.4666 4.33057 10.6755 3.16828 9.99512 2.47754C9.7794 2.25857 9.53073 2.1251 9.23828 2.06934Z" fill="#2E3750"/>
</svg>
