<svg width="19" height="19" viewBox="0 0 19 19" fill="none" xmlns="http://www.w3.org/2000/svg">
<path d="M6.2883 0.0713921C4.84439 0.539509 4.30374 2.25374 5.21361 3.4537L5.46415 3.78995L5.10152 3.96797C4.69934 4.16577 3.97408 4.8119 3.75651 5.16134C3.59827 5.42507 3.62464 5.67561 3.83563 5.78769C4.0532 5.89978 4.251 5.80747 4.51473 5.47122C5.05537 4.77234 5.77403 4.41631 6.81575 4.324C8.0289 4.21851 8.71459 3.71743 9.00469 2.71526C9.30139 1.7065 8.76734 0.592255 7.79814 0.157104C7.40914 -0.00772619 6.6707 -0.0538788 6.2883 0.0713921ZM7.48826 0.895542C8.49702 1.35047 8.58273 2.70208 7.6399 3.32184C7.40914 3.48007 7.29705 3.50645 6.92784 3.50645C6.55862 3.50645 6.44653 3.48007 6.21577 3.32184C5.47074 2.83394 5.32569 1.89771 5.8927 1.25157C6.15643 0.95488 6.54543 0.770271 6.92784 0.770271C7.09267 0.770271 7.34321 0.82961 7.48826 0.895542Z" fill="#2E3750"/>
<path d="M11.431 0.466828C10.3168 0.829453 9.67065 2.00964 9.98712 3.10411C10.297 4.15242 10.9629 4.62713 12.275 4.72603C12.9211 4.77218 13.0596 4.80515 13.4815 5.01613C13.8112 5.17437 14.0749 5.37217 14.332 5.64908C14.721 6.06445 14.8463 6.1106 15.0903 5.93918C15.3408 5.76116 15.2815 5.51062 14.8793 5.07547C14.5892 4.759 13.9233 4.28429 13.6266 4.1788C13.587 4.15902 13.62 4.0799 13.6991 3.99419C13.7782 3.90848 13.9233 3.67112 14.0222 3.47333C14.187 3.16345 14.2134 3.03158 14.2134 2.55028C14.2134 2.06897 14.187 1.93711 14.0288 1.62064C13.8178 1.17889 13.3694 0.750335 12.9409 0.552539C12.5519 0.38771 11.8134 0.341557 11.431 0.466828ZM12.5848 1.2712C13.587 1.68657 13.7518 2.99202 12.8815 3.64475C12.2024 4.15902 11.2266 3.92166 10.8376 3.14367C10.2772 2.0426 11.4376 0.789895 12.5848 1.2712Z" fill="#2E3750"/>
<path d="M8.85945 4.81877C7.29687 5.32645 6.83534 7.19891 7.96937 8.43184L8.12761 8.60326L7.85729 8.74172C7.4617 8.94611 6.90787 9.53291 6.67051 10.001C6.41997 10.5153 6.40679 10.7526 6.63095 10.8977C6.90787 11.0823 7.0661 10.9768 7.34961 10.4296C7.63312 9.87575 7.943 9.56587 8.51001 9.29555C8.82649 9.13731 8.95176 9.11753 9.49899 9.11753C10.0462 9.11753 10.1715 9.13731 10.488 9.29555C11.055 9.56587 11.3649 9.87575 11.6484 10.4296C11.9319 10.9768 12.0901 11.0823 12.367 10.8977C12.5912 10.7526 12.578 10.5153 12.3275 10.001C12.0901 9.53291 11.5363 8.94611 11.1407 8.74172L10.8704 8.60326L11.0286 8.43184C11.6879 7.71318 11.8462 6.75717 11.444 5.93961C11.2462 5.53084 10.7913 5.09568 10.3693 4.90448C9.9803 4.73965 9.24186 4.6935 8.85945 4.81877ZM10.0594 5.64292C11.0682 6.09785 11.1539 7.44946 10.2111 8.06922C9.9803 8.22745 9.86821 8.25383 9.49899 8.25383C9.12978 8.25383 9.01769 8.22745 8.78693 8.06922C8.0419 7.58132 7.89685 6.64509 8.46386 5.99895C8.72759 5.70226 9.11659 5.51765 9.49899 5.51765C9.66382 5.51765 9.91437 5.57699 10.0594 5.64292Z" fill="#2E3750"/>
<path d="M1.6005 5.25393C1.42248 5.35942 1.28402 5.60337 0.796128 6.61872C0.466469 7.29782 0.156588 7.9967 0.103843 8.1813C-0.0346143 8.64942 -0.0346143 11.6559 0.103843 12.1966C0.275266 12.8625 0.499435 13.1855 2.04884 15.025C2.87958 16.014 3.56527 16.8645 3.56527 16.9041C3.56527 16.9634 3.42681 16.9898 3.10375 16.9898C2.42465 16.9898 2.3785 17.0557 2.3785 17.9656C2.3785 18.7502 2.45761 18.9678 2.74771 18.9678C3.04441 18.9678 3.16968 18.7568 3.16968 18.2425V17.781H5.54323H7.91678V18.2293C7.91678 18.7634 8.02886 18.9678 8.31237 18.9678C8.63544 18.9678 8.70796 18.7766 8.70796 17.9656C8.70796 17.1283 8.63544 16.9898 8.18051 16.9898H7.91678V15.3217C7.91678 13.5218 7.85085 13.0405 7.55415 12.5394C7.46844 12.3944 6.61792 11.4977 5.66191 10.5549C4.00042 8.90656 3.91471 8.82744 3.58505 8.74832C3.39385 8.70876 3.23561 8.63624 3.23561 8.59008C3.23561 8.55052 3.32792 8.20768 3.43341 7.82527C3.75647 6.70443 3.67735 6.13082 3.13671 5.65611C2.84002 5.39898 2.25322 5.12206 1.99609 5.12206C1.89719 5.12206 1.71918 5.1814 1.6005 5.25393ZM2.29938 6.03852C2.58948 6.19016 2.74112 6.3418 2.84002 6.59894C2.89936 6.75717 2.87299 6.9286 2.67519 7.64066C2.54992 8.10878 2.44443 8.5703 2.44443 8.66261C2.44443 8.78129 2.36531 8.90656 2.1807 9.06479C1.78511 9.40105 1.62687 9.75049 1.62687 10.2648C1.62687 10.5483 1.66643 10.7724 1.74555 10.9241C1.90379 11.2274 3.76307 13.0998 3.90812 13.0998C4.22459 13.0998 4.41579 12.8163 4.28393 12.5526C4.24437 12.4735 3.79603 11.9856 3.28176 11.4713L2.35872 10.5351L2.39827 10.2252C2.46421 9.62522 3.09056 9.28896 3.57846 9.59225C3.94768 9.82301 6.76297 12.7108 6.93439 13.0339C7.08604 13.324 7.09263 13.3833 7.11241 15.1569L7.13219 16.9898H5.74762H4.35645V16.7722C4.35645 16.5876 4.13888 16.2975 2.77409 14.6822C1.86423 13.5943 1.1126 12.6515 1.0137 12.4405L0.829094 12.0779L0.809315 10.2713L0.789535 8.46481L1.39611 7.19233C1.72577 6.48685 2.01587 5.91325 2.02906 5.91325C2.04224 5.91325 2.16092 5.97258 2.29938 6.03852Z" fill="#2E3750"/>
<path d="M16.376 5.31961C15.9475 5.53059 15.6046 5.86025 15.4596 6.21628C15.3145 6.55913 15.3475 7.07999 15.5651 7.8448C15.6772 8.2338 15.7629 8.57665 15.7629 8.60961C15.7629 8.64258 15.664 8.69532 15.5519 8.7151C15.4332 8.74148 15.2288 8.82059 15.1036 8.87993C14.8135 9.03158 11.53 12.3348 11.385 12.6183C11.141 13.1062 11.0817 13.6073 11.0817 15.3215V16.9896H10.818C10.3631 16.9896 10.2905 17.128 10.2905 17.9785C10.2905 18.6181 10.3037 18.717 10.4224 18.8357C10.5872 19.0005 10.785 19.0005 10.9498 18.8357C11.0553 18.7302 11.0817 18.6181 11.0817 18.2423V17.7807H13.4553H15.8288V18.2423C15.8288 18.6181 15.8552 18.7302 15.9607 18.8357C16.1189 18.9939 16.2771 19.0005 16.4749 18.862C16.6134 18.7697 16.62 18.7104 16.62 18.0049C16.62 17.0489 16.5804 16.9896 15.8882 16.9896C15.5123 16.9896 15.4266 16.9698 15.4464 16.8907C15.4596 16.8379 16.1189 16.0204 16.9167 15.0709C18.4397 13.271 18.7232 12.8556 18.8881 12.2095C19.0331 11.6557 19.0397 8.66236 18.8946 8.18105C18.8419 7.99644 18.532 7.29757 18.2024 6.61847C17.431 5.01632 17.2595 4.89764 16.376 5.31961ZM17.5826 7.14592L18.1694 8.37226V10.2249V12.0776L17.9848 12.4403C17.8859 12.6512 17.1343 13.5941 16.2244 14.6819C14.8596 16.2973 14.642 16.5874 14.642 16.772V16.9896H13.2509H11.8663L11.8861 15.1896C11.9059 13.4886 11.9125 13.3765 12.0575 13.0732C12.163 12.8359 12.585 12.3677 13.6662 11.2799C14.4706 10.4689 15.242 9.72386 15.3805 9.63156C15.8882 9.27552 16.5343 9.592 16.6002 10.2249L16.6398 10.5348L15.7167 11.4711C15.2025 11.9853 14.7541 12.4732 14.7146 12.5523C14.5827 12.8161 14.7739 13.0996 15.0904 13.0996C15.2354 13.0996 17.0947 11.2271 17.2529 10.9238C17.3321 10.7722 17.3716 10.548 17.3716 10.2645C17.3716 9.75023 17.2134 9.40079 16.8178 9.06454C16.6332 8.90631 16.5541 8.78103 16.5541 8.66236C16.5541 8.56346 16.4486 8.10853 16.3233 7.64701C16.0728 6.73055 16.0794 6.53275 16.376 6.26243C16.5145 6.13716 16.8705 5.91959 16.9562 5.91299C16.976 5.91299 17.2595 6.46682 17.5826 7.14592Z" fill="#2E3750"/>
</svg>
