<svg width="225" height="64" viewBox="0 0 225 64" fill="none" xmlns="http://www.w3.org/2000/svg">
<rect x="0.25" y="0.25" width="224.5" height="63.5" rx="31.75" stroke="white" stroke-opacity="0.5" stroke-width="0.5"/>
<path d="M33.7601 15.6181C32.3137 15.8923 31.1698 16.5162 30.092 17.6129C28.4565 19.2767 27.8231 21.489 28.3525 23.7012C28.655 24.9396 29.1939 25.885 30.1488 26.8304C31.0374 27.7191 31.6897 28.1445 32.6824 28.4943C35.1782 29.364 37.8915 28.8252 39.6121 27.114C40.8317 25.9039 41.3327 24.5709 41.2854 22.6707L41.2571 21.678L38.1373 21.6497L35.0175 21.6308V22.5289V23.427H37.2203H39.4325L39.3663 23.8241C39.2623 24.448 38.8085 25.3272 38.3453 25.7999C37.5133 26.6413 36.4545 27.0195 34.9702 27.0195C33.0511 27.01 31.4912 26.0363 30.6593 24.3157C29.7801 22.4816 30.1488 20.2032 31.5574 18.804C32.4933 17.8776 33.694 17.3765 35.0081 17.3765C36.1425 17.3765 36.8516 17.594 37.8442 18.2557L38.3925 18.6244L39.026 18.0005L39.6499 17.3671L39.2529 17.0078C37.986 15.8733 35.6037 15.2683 33.7601 15.6181Z" fill="#4285F4"/>
<path d="M70.5168 22.2926V28.6267H71.5095H72.5022V22.2926V15.9585H71.5095H70.5168V22.2926Z" fill="#34A853"/>
<path d="M44.8779 20.5246C44.1216 20.7798 43.2991 21.3282 42.9115 21.8198C42.7508 22.0183 42.4861 22.4721 42.3254 22.8219C41.9378 23.6538 41.8527 24.8072 42.1079 25.7526C42.6752 27.8608 44.8306 29.1938 47.0523 28.8156C50.3517 28.2579 51.7887 24.4479 49.6994 21.8009C48.7067 20.5435 46.5323 19.9668 44.8779 20.5246ZM47.1185 22.1128C47.7141 22.2735 48.4326 23.0582 48.6311 23.7484C49.0471 25.1853 48.3286 26.6791 47.0334 27.0667C46.4378 27.2463 46.1825 27.2463 45.568 27.0572C44.5565 26.7641 43.8474 25.7337 43.8569 24.5708C43.8758 22.7651 45.379 21.6307 47.1185 22.1128Z" fill="#EA4335"/>
<path d="M54.5398 20.4585C52.5166 20.9973 51.1742 23.0866 51.4956 25.1949C51.7509 26.8398 52.7719 28.0783 54.3412 28.655C55.0881 28.9197 56.544 28.9197 57.2909 28.655C59.626 27.7947 60.7321 25.3745 59.8812 22.9637C59.5881 22.1318 58.7278 21.177 57.8864 20.7799C56.9127 20.3072 55.5892 20.1748 54.5398 20.4585ZM56.8654 22.2358C58.3591 22.9259 58.7184 25.1949 57.5367 26.4333C57.0356 26.9627 56.5724 27.1518 55.816 27.1518C55.0125 27.1518 54.5492 26.9438 54.0009 26.3199C53.15 25.3461 53.169 23.6633 54.0482 22.7274C54.7099 22.0184 55.9389 21.8009 56.8654 22.2358Z" fill="#FBBC05"/>
<path d="M63.9464 20.4774C63.209 20.7326 62.6418 21.1013 62.1218 21.678C60.5241 23.4175 60.5808 25.989 62.2352 27.634C63.4359 28.8157 65.0903 29.2033 66.4517 28.6172C66.7069 28.5132 67 28.3147 67.1229 28.1918C67.4727 27.8231 67.52 27.9081 67.4632 28.7212C67.3782 30.0447 66.8393 30.7538 65.7332 30.9996C64.7689 31.217 63.7195 30.7916 63.2374 29.9785C63.1145 29.78 63.001 29.6004 62.9821 29.5815C62.9254 29.5059 61.3466 30.1865 61.3466 30.2905C61.3466 30.4796 61.9138 31.2548 62.3865 31.6897C63.2846 32.5311 64.6082 32.9093 65.9128 32.7013C67.3782 32.4649 68.4464 31.633 68.9664 30.3094L69.2406 29.6193L69.2689 25.1003L69.2973 20.5908H68.3992H67.4916V20.8745C67.4916 21.0257 67.4727 21.1581 67.4443 21.1581C67.416 21.1581 67.2174 21.0257 67 20.8745C66.2342 20.3167 64.9107 20.1465 63.9464 20.4774ZM66.1113 22.1413C66.5557 22.3304 67.0945 22.8314 67.3214 23.2757C67.605 23.8241 67.6618 24.9396 67.4443 25.6014C66.9905 26.9722 65.3645 27.5962 64.1355 26.8871C63.2846 26.3861 62.9254 25.7148 62.9159 24.6087C62.9159 24.0131 62.9537 23.7673 63.1239 23.427C63.3697 22.907 63.814 22.4627 64.3245 22.2074C64.7783 21.9806 65.6481 21.9522 66.1113 22.1413Z" fill="#4285F4"/>
<path d="M76.1324 20.4774C74.5253 21.0446 73.4948 22.4533 73.3814 24.2306C73.3152 25.1476 73.457 25.8756 73.8446 26.6414C74.8467 28.655 77.4938 29.4681 79.602 28.4187C80.1409 28.1445 81.1997 27.2369 81.1997 27.0384C81.1997 26.9722 80.4812 26.4617 79.8951 26.1214C79.81 26.0741 79.6304 26.1781 79.3751 26.4334C78.7606 27.0195 78.4203 27.1613 77.6073 27.1519C77.0684 27.1519 76.8037 27.1046 76.5011 26.9439C76.1419 26.7548 75.5274 26.1308 75.5274 25.9512C75.5274 25.9134 75.6692 25.8189 75.8394 25.7527C76.0001 25.6771 77.248 25.1665 78.5999 24.6182C79.9518 24.0604 81.1146 23.5783 81.1808 23.531C81.2848 23.4648 81.247 23.3041 80.9823 22.7369C80.5474 21.801 79.8573 21.0636 79.0442 20.6665C78.4959 20.3923 78.3163 20.3545 77.5222 20.3356C76.832 20.3072 76.5011 20.3451 76.1324 20.4774ZM78.0138 22.0184C78.4581 22.1413 79.1199 22.7085 78.9781 22.8409C78.8552 22.9638 75.4423 24.3724 75.2816 24.3724C75.1114 24.3724 75.1114 24.2306 75.2816 23.6823C75.5085 22.9165 76.0852 22.3115 76.8226 22.0468C77.2669 21.8955 77.5505 21.886 78.0138 22.0184Z" fill="#EA4335"/>
<path d="M33.5051 37.2917C33.6816 36.7485 34.4501 36.7485 34.6266 37.2917L35.6544 40.4548C35.7333 40.6977 35.9597 40.8622 36.2151 40.8622H39.541C40.1121 40.8622 40.3496 41.5931 39.8875 41.9288L37.1969 43.8837C36.9902 44.0338 36.9037 44.3 36.9827 44.5429L38.0104 47.706C38.1869 48.2492 37.5652 48.7009 37.1031 48.3652L34.4124 46.4103C34.2058 46.2601 33.9259 46.2601 33.7193 46.4103L31.0286 48.3652C30.5665 48.7009 29.9448 48.2492 30.1213 47.706L31.149 44.5429C31.228 44.3 31.1415 44.0338 30.9349 43.8837L28.2442 41.9288C27.7821 41.5931 28.0196 40.8622 28.5907 40.8622H31.9166C32.172 40.8622 32.3984 40.6977 32.4774 40.4548L33.5051 37.2917Z" fill="#FBBC05"/>
<path d="M48.8349 37.2917C49.0114 36.7485 49.7799 36.7485 49.9564 37.2917L50.9841 40.4548C51.0631 40.6977 51.2895 40.8622 51.5449 40.8622H54.8708C55.4419 40.8622 55.6794 41.5931 55.2173 41.9288L52.5266 43.8837C52.32 44.0338 52.2335 44.3 52.3124 44.5429L53.3402 47.706C53.5167 48.2492 52.895 48.7009 52.4329 48.3652L49.7422 46.4103C49.5355 46.2601 49.2557 46.2601 49.0491 46.4103L46.3584 48.3652C45.8963 48.7009 45.2746 48.2492 45.4511 47.706L46.4788 44.5429C46.5578 44.3 46.4713 44.0338 46.2646 43.8837L43.574 41.9288C43.1119 41.5931 43.3493 40.8622 43.9205 40.8622H47.2464C47.5018 40.8622 47.7282 40.6977 47.8071 40.4548L48.8349 37.2917Z" fill="#FBBC05"/>
<path d="M64.1647 37.2917C64.3412 36.7485 65.1097 36.7485 65.2862 37.2917L66.3139 40.4548C66.3928 40.6977 66.6192 40.8622 66.8747 40.8622H70.2005C70.7717 40.8622 71.0092 41.5931 70.5471 41.9288L67.8564 43.8837C67.6498 44.0338 67.5633 44.3 67.6422 44.5429L68.67 47.706C68.8465 48.2492 68.2247 48.7009 67.7627 48.3652L65.072 46.4103C64.8653 46.2601 64.5855 46.2601 64.3789 46.4103L61.6882 48.3652C61.2261 48.7009 60.6044 48.2492 60.7809 47.706L61.8086 44.5429C61.8875 44.3 61.8011 44.0338 61.5944 43.8837L58.9037 41.9288C58.4417 41.5931 58.6791 40.8622 59.2503 40.8622H62.5762C62.8316 40.8622 63.058 40.6977 63.1369 40.4548L64.1647 37.2917Z" fill="#FBBC05"/>
<path d="M79.4944 37.2917C79.6709 36.7485 80.4394 36.7485 80.6159 37.2917L81.6437 40.4548C81.7226 40.6977 81.949 40.8622 82.2044 40.8622H85.5303C86.1015 40.8622 86.339 41.5931 85.8769 41.9288L83.1862 43.8837C82.9795 44.0338 82.8931 44.3 82.972 44.5429L83.9998 47.706C84.1763 48.2492 83.5545 48.7009 83.0924 48.3652L80.4018 46.4103C80.1951 46.2601 79.9153 46.2601 79.7086 46.4103L77.0179 48.3652C76.5559 48.7009 75.9341 48.2492 76.1106 47.706L77.1384 44.5429C77.2173 44.3 77.1308 44.0338 76.9242 43.8837L74.2335 41.9288C73.7714 41.5931 74.0089 40.8622 74.5801 40.8622H77.9059C78.1614 40.8622 78.3878 40.6977 78.4667 40.4548L79.4944 37.2917Z" fill="#FBBC05"/>
<path d="M94.8242 37.2917C95.0007 36.7485 95.7692 36.7485 95.9457 37.2917L96.9735 40.4548C97.0524 40.6977 97.2788 40.8622 97.5342 40.8622H100.86C101.431 40.8622 101.669 41.5931 101.207 41.9288L98.516 43.8837C98.3093 44.0338 98.2228 44.3 98.3018 44.5429L99.3295 47.706C99.506 48.2492 98.8843 48.7009 98.4222 48.3652L95.7315 46.4103C95.5249 46.2601 95.2451 46.2601 95.0384 46.4103L92.3477 48.3652C91.8856 48.7009 91.2639 48.2492 91.4404 47.706L92.4682 44.5429C92.5471 44.3 92.4606 44.0338 92.254 43.8837L89.5633 41.9288C89.1012 41.5931 89.3387 40.8622 89.9099 40.8622H93.2357C93.4911 40.8622 93.7175 40.6977 93.7965 40.4548L94.8242 37.2917Z" fill="#FBBC05"/>
<path opacity="0.5" d="M111.451 7.5L111.451 56.5" stroke="white" stroke-width="0.5" stroke-linecap="round"/>
<path d="M122.873 28V16.0781L130.974 25.6484V16.5625H131.943V28.3359L123.849 18.75V28H122.873ZM137.834 27.4062C138.594 27.4062 139.237 27.1328 139.763 26.5859C140.295 26.0339 140.56 25.3594 140.56 24.5625C140.56 23.7552 140.297 23.0781 139.771 22.5312C139.245 21.9844 138.599 21.7109 137.834 21.7109C137.073 21.7109 136.43 21.9844 135.904 22.5312C135.378 23.0781 135.115 23.7552 135.115 24.5625C135.115 25.3594 135.378 26.0339 135.904 26.5859C136.43 27.1328 137.073 27.4062 137.834 27.4062ZM137.802 28.3047C137.308 28.3047 136.834 28.2057 136.38 28.0078C135.927 27.8151 135.516 27.5365 135.146 27.1719C134.797 26.8281 134.532 26.4323 134.349 25.9844C134.167 25.5365 134.076 25.0573 134.076 24.5469C134.076 24.0417 134.17 23.5625 134.357 23.1094C134.545 22.6562 134.813 22.2552 135.162 21.9062C135.516 21.5521 135.92 21.2812 136.373 21.0938C136.826 20.9062 137.302 20.8125 137.802 20.8125C138.313 20.8125 138.797 20.9062 139.255 21.0938C139.719 21.2812 140.13 21.5521 140.49 21.9062C140.849 22.2604 141.123 22.6641 141.31 23.1172C141.503 23.5703 141.599 24.0469 141.599 24.5469C141.599 25.0469 141.505 25.5234 141.318 25.9766C141.13 26.4245 140.86 26.8229 140.505 27.1719C140.141 27.5365 139.724 27.8151 139.255 28.0078C138.792 28.2057 138.308 28.3047 137.802 28.3047ZM143.795 21.8906H142.521V21.0703H143.795V18.2266H144.74V21.0703H146.13V21.8906H144.74V28H143.795V21.8906ZM148.005 24.6094C148.005 25.5052 148.206 26.1953 148.607 26.6797C149.013 27.1641 149.591 27.4062 150.341 27.4062C151.071 27.4062 151.644 27.1432 152.06 26.6172C152.482 26.0859 152.693 25.3568 152.693 24.4297C152.693 23.5807 152.485 22.9141 152.068 22.4297C151.651 21.9401 151.081 21.6953 150.357 21.6953C149.633 21.6953 149.06 21.9557 148.638 22.4766C148.216 22.9922 148.005 23.7031 148.005 24.6094ZM152.677 28V26.7344C152.448 27.2448 152.125 27.6354 151.709 27.9062C151.297 28.1719 150.81 28.3047 150.248 28.3047C149.253 28.3047 148.451 27.9635 147.841 27.2812C147.237 26.599 146.935 25.6979 146.935 24.5781C146.935 23.4688 147.235 22.5651 147.834 21.8672C148.433 21.1641 149.206 20.8125 150.154 20.8125C150.742 20.8125 151.25 20.9427 151.677 21.2031C152.11 21.4583 152.443 21.8359 152.677 22.3359V21.0703H153.638V28H152.677ZM162.279 21.1016C162.571 20.9766 162.857 20.8828 163.138 20.8203C163.42 20.7526 163.698 20.7188 163.974 20.7188C165.058 20.7188 165.93 21.0521 166.591 21.7188C167.258 22.3802 167.591 23.2474 167.591 24.3203C167.591 25.513 167.235 26.4792 166.521 27.2188C165.808 27.9531 164.875 28.3203 163.724 28.3203C162.917 28.3203 162.222 28.1406 161.638 27.7812C161.055 27.4167 160.571 26.8646 160.185 26.125L160.998 25.5234C161.331 26.1589 161.722 26.6276 162.17 26.9297C162.617 27.2266 163.151 27.375 163.771 27.375C164.61 27.375 165.276 27.1042 165.771 26.5625C166.271 26.0208 166.521 25.2943 166.521 24.3828C166.521 23.5339 166.266 22.862 165.755 22.3672C165.25 21.8672 164.56 21.6172 163.685 21.6172C163.201 21.6172 162.761 21.6875 162.365 21.8281C161.969 21.9635 161.62 22.1693 161.318 22.4453L160.998 22.4141L162.459 16.6719H167.084V17.5547H163.177L162.279 21.1016ZM170.271 27.3438C170.271 27.1198 170.347 26.9323 170.498 26.7812C170.654 26.625 170.844 26.5469 171.068 26.5469C171.292 26.5469 171.479 26.625 171.63 26.7812C171.787 26.9323 171.865 27.1198 171.865 27.3438C171.865 27.5677 171.787 27.7578 171.63 27.9141C171.479 28.0651 171.292 28.1406 171.068 28.1406C170.844 28.1406 170.654 28.0651 170.498 27.9141C170.347 27.7578 170.271 27.5677 170.271 27.3438ZM175.216 22.3984C175.216 23.9557 175.461 25.1745 175.951 26.0547C176.446 26.9349 177.128 27.375 177.998 27.375C178.904 27.375 179.591 26.9505 180.06 26.1016C180.529 25.2526 180.763 24.0078 180.763 22.3672C180.763 20.7474 180.524 19.5104 180.045 18.6562C179.571 17.8021 178.878 17.375 177.966 17.375C177.107 17.375 176.433 17.8203 175.943 18.7109C175.459 19.5964 175.216 20.8255 175.216 22.3984ZM177.966 28.3047C176.795 28.3047 175.867 27.7786 175.185 26.7266C174.508 25.6745 174.17 24.2266 174.17 22.3828C174.17 20.5339 174.508 19.0833 175.185 18.0312C175.867 16.974 176.805 16.4453 177.998 16.4453C179.185 16.4453 180.115 16.9714 180.787 18.0234C181.464 19.0703 181.802 20.5234 181.802 22.3828C181.802 24.2578 181.464 25.7135 180.787 26.75C180.115 27.7865 179.175 28.3047 177.966 28.3047ZM122.732 47V40.0703H123.646V41.1406C123.927 40.6979 124.271 40.3672 124.677 40.1484C125.089 39.9245 125.56 39.8125 126.091 39.8125C126.878 39.8125 127.49 40.0312 127.927 40.4688C128.365 40.9062 128.584 41.5156 128.584 42.2969V47H127.607V42.7266C127.607 42.0339 127.461 41.5208 127.17 41.1875C126.883 40.849 126.438 40.6797 125.834 40.6797C125.099 40.6797 124.558 40.8984 124.209 41.3359C123.865 41.7682 123.693 42.4505 123.693 43.3828V47H122.732ZM134.255 46.4062C135.016 46.4062 135.659 46.1328 136.185 45.5859C136.716 45.0339 136.982 44.3594 136.982 43.5625C136.982 42.7552 136.719 42.0781 136.193 41.5312C135.667 40.9844 135.021 40.7109 134.255 40.7109C133.495 40.7109 132.852 40.9844 132.326 41.5312C131.8 42.0781 131.537 42.7552 131.537 43.5625C131.537 44.3594 131.8 45.0339 132.326 45.5859C132.852 46.1328 133.495 46.4062 134.255 46.4062ZM134.224 47.3047C133.729 47.3047 133.255 47.2057 132.802 47.0078C132.349 46.8151 131.938 46.5365 131.568 46.1719C131.219 45.8281 130.953 45.4323 130.771 44.9844C130.589 44.5365 130.498 44.0573 130.498 43.5469C130.498 43.0417 130.591 42.5625 130.779 42.1094C130.966 41.6562 131.235 41.2552 131.584 40.9062C131.938 40.5521 132.341 40.2812 132.795 40.0938C133.248 39.9062 133.724 39.8125 134.224 39.8125C134.735 39.8125 135.219 39.9062 135.677 40.0938C136.141 40.2812 136.552 40.5521 136.912 40.9062C137.271 41.2604 137.545 41.6641 137.732 42.1172C137.925 42.5703 138.021 43.0469 138.021 43.5469C138.021 44.0469 137.927 44.5234 137.74 44.9766C137.552 45.4245 137.282 45.8229 136.927 46.1719C136.563 46.5365 136.146 46.8151 135.677 47.0078C135.214 47.2057 134.729 47.3047 134.224 47.3047ZM154.138 38.4375C153.675 37.7188 153.104 37.1745 152.427 36.8047C151.75 36.4349 150.987 36.25 150.138 36.25C148.722 36.25 147.568 36.7292 146.677 37.6875C145.787 38.6458 145.341 39.888 145.341 41.4141C145.341 42.0964 145.459 42.7396 145.693 43.3438C145.933 43.9479 146.279 44.4844 146.732 44.9531C147.19 45.4167 147.703 45.7656 148.271 46C148.839 46.2292 149.461 46.3438 150.138 46.3438C151.42 46.3438 152.461 45.9661 153.263 45.2109C154.071 44.4557 154.485 43.4688 154.505 42.25H150.56V41.3516H155.646V41.4766C155.646 43.2995 155.149 44.7266 154.154 45.7578C153.159 46.7891 151.789 47.3047 150.045 47.3047C148.31 47.3047 146.907 46.7526 145.834 45.6484C144.761 44.5443 144.224 43.0964 144.224 41.3047C144.224 40.4818 144.36 39.7057 144.63 38.9766C144.901 38.2422 145.292 37.6042 145.802 37.0625C146.354 36.474 146.977 36.0339 147.67 35.7422C148.367 35.4505 149.144 35.3047 149.998 35.3047C151.159 35.3047 152.154 35.5156 152.982 35.9375C153.81 36.3542 154.448 36.9688 154.896 37.7812L154.138 38.4375ZM160.88 46.4062C161.641 46.4062 162.284 46.1328 162.81 45.5859C163.341 45.0339 163.607 44.3594 163.607 43.5625C163.607 42.7552 163.344 42.0781 162.818 41.5312C162.292 40.9844 161.646 40.7109 160.88 40.7109C160.12 40.7109 159.477 40.9844 158.951 41.5312C158.425 42.0781 158.162 42.7552 158.162 43.5625C158.162 44.3594 158.425 45.0339 158.951 45.5859C159.477 46.1328 160.12 46.4062 160.88 46.4062ZM160.849 47.3047C160.354 47.3047 159.88 47.2057 159.427 47.0078C158.974 46.8151 158.563 46.5365 158.193 46.1719C157.844 45.8281 157.578 45.4323 157.396 44.9844C157.214 44.5365 157.123 44.0573 157.123 43.5469C157.123 43.0417 157.216 42.5625 157.404 42.1094C157.591 41.6562 157.86 41.2552 158.209 40.9062C158.563 40.5521 158.966 40.2812 159.42 40.0938C159.873 39.9062 160.349 39.8125 160.849 39.8125C161.36 39.8125 161.844 39.9062 162.302 40.0938C162.766 40.2812 163.177 40.5521 163.537 40.9062C163.896 41.2604 164.17 41.6641 164.357 42.1172C164.55 42.5703 164.646 43.0469 164.646 43.5469C164.646 44.0469 164.552 44.5234 164.365 44.9766C164.177 45.4245 163.907 45.8229 163.552 46.1719C163.188 46.5365 162.771 46.8151 162.302 47.0078C161.839 47.2057 161.354 47.3047 160.849 47.3047ZM169.818 46.4062C170.578 46.4062 171.222 46.1328 171.748 45.5859C172.279 45.0339 172.545 44.3594 172.545 43.5625C172.545 42.7552 172.282 42.0781 171.755 41.5312C171.229 40.9844 170.584 40.7109 169.818 40.7109C169.058 40.7109 168.414 40.9844 167.888 41.5312C167.362 42.0781 167.099 42.7552 167.099 43.5625C167.099 44.3594 167.362 45.0339 167.888 45.5859C168.414 46.1328 169.058 46.4062 169.818 46.4062ZM169.787 47.3047C169.292 47.3047 168.818 47.2057 168.365 47.0078C167.912 46.8151 167.5 46.5365 167.13 46.1719C166.782 45.8281 166.516 45.4323 166.334 44.9844C166.151 44.5365 166.06 44.0573 166.06 43.5469C166.06 43.0417 166.154 42.5625 166.341 42.1094C166.529 41.6562 166.797 41.2552 167.146 40.9062C167.5 40.5521 167.904 40.2812 168.357 40.0938C168.81 39.9062 169.287 39.8125 169.787 39.8125C170.297 39.8125 170.782 39.9062 171.24 40.0938C171.703 40.2812 172.115 40.5521 172.474 40.9062C172.834 41.2604 173.107 41.6641 173.295 42.1172C173.487 42.5703 173.584 43.0469 173.584 43.5469C173.584 44.0469 173.49 44.5234 173.302 44.9766C173.115 45.4245 172.844 45.8229 172.49 46.1719C172.125 46.5365 171.709 46.8151 171.24 47.0078C170.776 47.2057 170.292 47.3047 169.787 47.3047ZM181.67 40.0703V45.7969C181.67 46.7083 181.644 47.4036 181.591 47.8828C181.545 48.362 181.464 48.7188 181.349 48.9531C181.11 49.4688 180.742 49.8516 180.248 50.1016C179.753 50.3568 179.128 50.4844 178.373 50.4844C177.451 50.4844 176.732 50.3047 176.216 49.9453C175.706 49.5911 175.396 49.0521 175.287 48.3281H176.49C176.568 48.7552 176.771 49.0781 177.099 49.2969C177.433 49.5156 177.883 49.625 178.451 49.625C178.878 49.625 179.261 49.5495 179.599 49.3984C179.943 49.2474 180.201 49.0391 180.373 48.7734C180.487 48.6016 180.568 48.401 180.615 48.1719C180.667 47.9479 180.693 47.599 180.693 47.125V46.7578V45.7188C180.479 46.2135 180.151 46.6016 179.709 46.8828C179.271 47.1641 178.769 47.3047 178.201 47.3047C177.227 47.3047 176.448 46.9661 175.865 46.2891C175.287 45.612 174.998 44.7031 174.998 43.5625C174.998 42.4323 175.295 41.526 175.888 40.8438C176.482 40.1562 177.269 39.8125 178.248 39.8125C178.795 39.8125 179.289 39.9557 179.732 40.2422C180.18 40.5234 180.5 40.8984 180.693 41.3672V40.0703H181.67ZM178.357 40.6953C177.638 40.6953 177.071 40.9531 176.654 41.4688C176.242 41.9792 176.037 42.6823 176.037 43.5781C176.037 44.4688 176.232 45.1641 176.623 45.6641C177.019 46.1589 177.565 46.4062 178.263 46.4062C179.003 46.4062 179.594 46.1432 180.037 45.6172C180.485 45.0911 180.709 44.3828 180.709 43.4922C180.709 42.6172 180.5 41.9323 180.084 41.4375C179.667 40.9427 179.091 40.6953 178.357 40.6953ZM185.287 47H184.295V34.8906H185.287V47ZM192.732 42.7422C192.685 42.1068 192.474 41.6146 192.099 41.2656C191.724 40.9167 191.216 40.7422 190.576 40.7422C189.992 40.7422 189.503 40.9245 189.107 41.2891C188.716 41.6536 188.49 42.138 188.427 42.7422H192.732ZM193.873 43.5625H188.365C188.391 44.4583 188.615 45.1615 189.037 45.6719C189.459 46.1823 190.024 46.4375 190.732 46.4375C191.242 46.4375 191.69 46.2995 192.076 46.0234C192.461 45.7474 192.782 45.3307 193.037 44.7734L193.92 45.2578C193.565 45.9609 193.13 46.4792 192.615 46.8125C192.104 47.1406 191.477 47.3047 190.732 47.3047C189.716 47.3047 188.894 46.9661 188.263 46.2891C187.638 45.6068 187.326 44.7135 187.326 43.6094C187.326 42.474 187.636 41.5573 188.255 40.8594C188.88 40.1615 189.696 39.8125 190.701 39.8125C191.659 39.8125 192.427 40.1354 193.005 40.7812C193.584 41.4219 193.873 42.2786 193.873 43.3516V43.5625Z" fill="white"/>
</svg>
