<svg width="20" height="20" viewBox="0 0 20 20" fill="none" xmlns="http://www.w3.org/2000/svg">
<path d="M9.09013 0.0125008C8.19886 0.0655212 7.12075 0.280132 6.40118 0.547766C6.11334 0.656334 6.05022 0.835596 6.21686 1.07546C6.3734 1.30269 6.56782 1.56022 6.64609 1.64607C6.76223 1.76979 6.82282 1.77484 7.16873 1.67132C8.08019 1.39864 8.67605 1.31279 9.62034 1.31279C10.6076 1.31279 11.3297 1.42641 12.2209 1.72181C13.4177 2.11316 14.4832 2.757 15.3694 3.61796C16.147 4.37542 16.6419 5.05207 17.1014 5.99131C17.5004 6.80431 17.7427 7.6173 17.8816 8.59694C17.9371 8.99081 17.9447 10.1952 17.8942 10.5663C17.715 11.8818 17.3564 12.9169 16.7151 13.9748C16.5333 14.2753 16.349 14.5354 16.3238 14.5253C16.3137 14.5202 16.1647 14.3536 15.9905 14.1516C15.5638 13.6567 15.5411 13.634 15.4376 13.5986C15.2962 13.5532 15.1371 13.6315 15.0816 13.7729C15.0588 13.8334 14.622 15.2044 14.213 16.5022C14.1095 16.8304 14.0262 17.1208 14.0262 17.146C14.0262 17.2218 14.1196 17.3531 14.2029 17.396C14.2736 17.4313 14.3266 17.4288 14.9553 17.3606C17.6064 17.0652 17.922 17.0274 17.9952 16.9895C18.071 16.9491 18.1417 16.8229 18.1417 16.7219C18.1417 16.6335 18.0785 16.5502 17.6291 16.0351L17.21 15.5554L17.2984 15.4418C17.4423 15.2499 17.8488 14.6313 17.975 14.4091C19.2046 12.2453 19.5556 9.71039 18.9622 7.30675C18.1063 3.8452 15.3845 1.12595 11.9255 0.277609C11.0368 0.0579472 9.98897 -0.0379963 9.09013 0.0125008Z" fill="#2E3750"/>
<path d="M4.4695 1.87072C4.31801 1.8884 3.57319 1.97172 2.81574 2.05504C2.05829 2.14088 1.40435 2.2141 1.35891 2.22168C1.18469 2.25197 1.0736 2.41609 1.11147 2.58525C1.1241 2.64585 1.5104 3.11547 1.95982 3.61539L2.03304 3.6987L1.94467 3.81485C1.35386 4.58997 0.831217 5.56961 0.513087 6.50127C0.0611418 7.83438 -0.0928731 9.21799 0.0535673 10.6622C0.207582 12.1746 0.768096 13.7173 1.62654 14.9948C2.43196 16.1891 3.55299 17.2369 4.81036 17.9691C5.75969 18.522 6.94637 18.9462 8.0371 19.1229C9.17832 19.3098 10.4256 19.287 11.5264 19.0623C12.0465 18.9563 12.7535 18.7543 12.9403 18.6584C13.0918 18.5801 13.1549 18.4109 13.0868 18.2721C13.0161 18.1332 12.5742 17.5626 12.5162 17.5348C12.4202 17.4919 12.3243 17.5045 12.0112 17.6004C10.9179 17.9312 9.65047 18.0322 8.49662 17.8731C6.00208 17.5348 3.79285 16.078 2.48751 13.9117C1.88912 12.9169 1.53565 11.8968 1.36143 10.6672C1.30336 10.2709 1.29579 9.04631 1.34628 8.67263C1.5407 7.25115 1.96487 6.11245 2.71979 4.9788C2.80311 4.85003 2.88138 4.73641 2.89148 4.72631C2.90158 4.71621 3.09347 4.91568 3.31565 5.17321C3.66156 5.56708 3.73983 5.64283 3.81052 5.65798C3.92919 5.67818 4.03523 5.6504 4.09835 5.58476C4.12613 5.55446 4.21197 5.32722 4.29277 5.07474C4.92902 3.0574 5.21433 2.14088 5.21433 2.11311C5.21433 2.03989 5.12849 1.90102 5.06032 1.8682C4.977 1.82528 4.85075 1.82528 4.4695 1.87072Z" fill="#2E3750"/>
<path d="M6.49907 8.34508H8.31948H10.9201H12.7405H14.5609L14.6341 8.4183L14.7073 8.49152V9.62769V10.7639L14.6189 10.8421L14.528 10.9204H12.7253H10.9201H8.31948H6.52432C4.8958 10.9204 4.72159 10.9154 4.65847 10.8775C4.61807 10.8548 4.57515 10.8093 4.56 10.7765C4.54233 10.7361 4.53223 10.3498 4.53223 9.60497V8.49152L4.60545 8.4183L4.67867 8.34508H6.49907Z" fill="#2E3750"/>
</svg>
