<svg width="20" height="23" viewBox="0 0 20 23" fill="none" xmlns="http://www.w3.org/2000/svg">
<path d="M8.76199 0.673195C8.8064 1.90905 8.9396 2.83039 9.16161 3.46682C9.40212 4.14395 9.70184 4.63977 10.3827 5.49451C10.8526 6.08284 10.9562 6.27155 11.1375 6.91908C11.2929 7.463 11.4446 7.73311 11.785 8.06613C12.2031 8.47685 12.6546 8.69145 13.254 8.77286C13.4316 8.79506 13.6092 8.82836 13.6425 8.84686C13.7202 8.88756 13.8941 9.41669 14.0125 9.95691C14.0791 10.2751 14.0939 10.4527 14.0939 11.0078C14.0939 11.6109 14.0828 11.7071 13.994 12.0401C13.8016 12.7579 13.3465 13.5572 12.5436 14.5969C11.3373 16.1547 10.86 16.8429 10.4234 17.6348C10.1163 18.1935 9.79434 18.9335 9.59823 19.5292L9.43542 20.0251L9.30592 20.0029C8.8323 19.9178 8.15517 19.829 7.56684 19.7772C5.67976 19.6106 4.78802 19.47 4.02578 19.2221C2.61232 18.7559 1.88338 17.9012 1.63177 16.4174C1.57627 16.1066 1.57257 15.9734 1.60957 15.4554C1.63177 15.126 1.68358 14.7005 1.72058 14.5081C1.80938 14.0678 2.02769 13.6053 2.246 13.3907C2.46801 13.1724 2.90093 12.9725 3.15994 12.9725C3.43745 12.9688 3.49666 13.0503 3.54106 13.5128C3.59656 14.1233 3.64836 14.4008 3.76307 14.7264C3.99618 15.3814 4.32179 15.8883 4.84352 16.41C5.60945 17.1722 6.627 17.6977 7.81105 17.9419C8.34388 18.0529 9.16531 18.1121 9.65744 18.0714L10.0645 18.0381L10.2717 17.6496C10.6935 16.8466 11.0894 16.2805 12.5066 14.4304C13.6129 12.991 13.9755 12.1548 13.9755 11.0263C13.9755 10.5304 13.9496 10.2936 13.8386 9.783L13.7794 9.52029L13.4353 9.49439C12.7804 9.44999 12.2476 9.30568 11.8775 9.07997C11.415 8.79506 11.3299 8.75806 11.1708 8.75436C11.0561 8.75066 10.9895 8.77286 10.9377 8.82466C10.9007 8.86536 10.7786 9.16138 10.6713 9.48699C10.2495 10.7635 9.62413 11.7478 8.9655 12.177C8.65839 12.3731 8.42898 12.4434 8.12557 12.4249C7.86655 12.4101 7.63344 12.3139 6.98591 11.9476C6.6455 11.7589 6.18668 11.5998 5.79446 11.5406C5.55395 11.5036 5.38374 11.5036 4.96562 11.5369C4.30329 11.5961 4.11089 11.5628 3.82967 11.3593C3.33385 11.0004 3.04154 10.8783 2.59012 10.8524C2.246 10.8302 1.94629 10.8931 1.61697 11.0596C0.947243 11.4 0.458821 12.0919 0.207209 13.0614C0.0296013 13.7607 0 14.0789 0 15.337C0 16.299 0.0111005 16.5432 0.0703032 16.854C0.177608 17.4312 0.299713 17.8161 0.532824 18.2971C1.00275 19.2739 1.71318 19.9622 2.76032 20.458C3.66687 20.8909 4.71401 21.1277 6.40129 21.2905C8.01086 21.4459 8.49928 21.5014 8.7953 21.5569C9.09501 21.6124 9.11721 21.6235 9.10241 21.6975C9.07281 21.8307 9.00991 22.5301 9.00991 22.7373V22.9334L9.24302 22.9556C9.36882 22.9667 9.69814 22.9815 9.97565 22.9889L10.4789 23L10.5048 22.6115C10.6121 20.9612 11.0746 19.4367 11.8775 18.0751C12.1476 17.6163 12.6176 16.9428 13.0394 16.3915C14.4973 14.5081 14.8747 13.9272 15.2188 13.0614C15.7257 11.7774 15.722 10.2011 15.204 8.67665C15.0782 8.31034 15.0893 8.21783 15.2632 7.95882C15.6517 7.3927 15.8552 6.63416 15.8552 5.77202C15.8552 4.83958 15.611 4.08105 15.1485 3.57413C14.7637 3.15601 14.3492 2.9599 13.846 2.9599C13.3983 2.9599 13.0505 3.0894 12.5843 3.41872C12.0588 3.79613 11.7702 3.85534 11.3854 3.65923C10.9451 3.44092 10.6195 2.9562 10.4345 2.25686C10.3198 1.81285 10.194 0.950706 10.194 0.60659C10.194 0.462284 10.1829 0.266176 10.1718 0.169971L10.1459 -0.000236511H9.44283H8.73979L8.76199 0.673195Z" fill="#2E3750"/>
<path d="M16.8059 3.3967C16.7504 3.43 16.6579 3.55211 16.6024 3.66311C16.5099 3.85182 16.5025 3.89993 16.5025 4.31064C16.5062 4.62886 16.5247 4.81757 16.5728 4.97667C16.7134 5.44659 16.7467 5.6168 16.7689 5.98312C16.8096 6.68985 16.6579 7.40398 16.3249 8.04781C16.1695 8.34753 16.0696 8.48073 15.7995 8.75824L15.4665 9.09496L15.5294 9.36877C15.9179 11.019 15.7588 12.3992 15.015 13.8016C14.6894 14.4195 14.3268 14.9449 13.3056 16.2622C12.7542 16.9726 12.4323 17.4277 12.4767 17.4277C12.5655 17.4277 13.683 16.8357 14.0308 16.6026C15.0187 15.944 15.9549 15.0337 16.7837 13.9274C18.4081 11.7628 19.2369 9.23557 19.0408 7.04877C18.9187 5.73151 18.5487 4.80647 17.7569 3.85552C17.3498 3.3671 17.0723 3.2302 16.8059 3.3967Z" fill="#2E3750"/>
</svg>
