<svg width="19" height="21" viewBox="0 0 19 21" fill="none" xmlns="http://www.w3.org/2000/svg">
<path d="M8.85678 0.249605C7.99565 0.752974 6.83915 1.27298 5.78249 1.63491C4.16007 2.1882 2.01763 2.57092 0.511688 2.57092H0V3.99366C0 7.27596 0.357766 9.85936 1.14402 12.2431C2.15075 15.3174 3.85222 17.6761 6.19434 19.2486C6.98891 19.7853 8.07469 20.3386 8.9275 20.6506L9.30607 20.7837L9.71791 20.6214C10.9743 20.1181 12.3346 19.3318 13.3538 18.5165C13.8572 18.1171 14.8639 17.102 15.2633 16.5987C16.2742 15.3174 17.0896 13.7573 17.6345 12.0559C18.1462 10.4542 18.4541 8.72782 18.5955 6.61451C18.6413 5.91562 18.6537 3.34053 18.6121 2.89541L18.583 2.62084L18.2253 2.59172C17.4432 2.53764 16.3865 2.4378 15.9539 2.37956C14.502 2.18404 13.1416 1.81795 11.8603 1.2813C11.357 1.0733 10.0424 0.428488 9.54319 0.141443L9.28943 1.90735e-06L8.85678 0.249605ZM9.57647 2.42948C10.0507 2.69988 10.9867 3.15333 11.4776 3.34469C12.8088 3.87302 13.9404 4.11431 15.7334 4.25575C16.1702 4.28903 16.5404 4.33063 16.5529 4.34311C16.6028 4.39303 16.5779 7.49644 16.5238 8.06221C16.1743 11.6274 15.0969 14.2149 13.1708 16.1078C12.2223 17.0355 10.9451 17.855 9.63471 18.3792L9.31023 18.5081L9.0939 18.4374C8.46573 18.2294 7.5422 17.7552 6.84747 17.2809C4.38055 15.6086 2.87461 12.9087 2.2922 9.11887C2.12163 8.02061 2.06755 7.18859 2.06339 5.71593L2.05923 4.30567L2.16323 4.29319C2.22148 4.28903 2.52516 4.27239 2.83717 4.25991C4.04774 4.20999 5.55369 3.91462 6.69771 3.50694C7.459 3.23237 8.66126 2.67492 9.08974 2.39204C9.18127 2.3338 9.26863 2.28388 9.28527 2.28388C9.29775 2.27972 9.43087 2.34628 9.57647 2.42948Z" fill="#2E3750"/>
<path d="M9.09 3.0536C8.47847 3.44049 7.18885 4.0021 6.34435 4.2517C5.21282 4.58451 4.51808 4.70099 3.02878 4.79667L2.62109 4.82579V5.82836C2.62109 7.36759 2.73758 8.69881 2.96638 9.89275L3.0579 10.3712L6.19043 10.3836L9.3188 10.392V14.0944C9.3188 16.6113 9.33128 17.7969 9.3604 17.7969C9.43528 17.7969 10.3547 17.3767 10.7499 17.1604C13.0421 15.9165 14.5771 13.9322 15.3634 11.2032C15.4424 10.9286 15.5173 10.6332 15.5339 10.5459L15.5631 10.392H12.4388H9.3188V6.6687C9.3188 4.62195 9.30632 2.94544 9.28968 2.94544C9.26888 2.94544 9.18152 2.99536 9.09 3.0536Z" fill="#2E3750"/>
</svg>
