<svg width="45" height="46" viewBox="0 0 45 46" fill="none" xmlns="http://www.w3.org/2000/svg">
<rect y="0.5" width="45" height="45" rx="22.5" fill="#B90012"/>
<path d="M12.9393 29.9393C12.3536 30.5251 12.3536 31.4749 12.9393 32.0607C13.5251 32.6464 14.4749 32.6464 15.0607 32.0607L14 31L12.9393 29.9393ZM31.5 15C31.5 14.1716 30.8284 13.5 30 13.5L16.5 13.5C15.6716 13.5 15 14.1716 15 15C15 15.8284 15.6716 16.5 16.5 16.5H28.5V28.5C28.5 29.3284 29.1716 30 30 30C30.8284 30 31.5 29.3284 31.5 28.5L31.5 15ZM14 31L15.0607 32.0607L31.0607 16.0607L30 15L28.9393 13.9393L12.9393 29.9393L14 31Z" fill="white"/>
</svg>
