<svg width="21" height="21" viewBox="0 0 21 21" fill="none" xmlns="http://www.w3.org/2000/svg">
<path d="M17.7178 20.5L17.9697 20.4258L17.9717 20.4248C19.1833 20.074 20.0691 19.1882 20.4199 17.9766L20.4209 17.9746L20.4951 17.7246V3.28223L20.4209 3.03027L20.4199 3.02832C20.0734 1.82992 19.2115 0.955987 17.9844 0.577148L17.9814 0.576172L17.7549 0.504883L10.6201 0.500977C8.63834 0.498923 6.81468 0.50124 5.47363 0.505859C4.80336 0.508168 4.2542 0.510283 3.86621 0.513672C3.6721 0.515368 3.519 0.517668 3.41211 0.519531C3.35843 0.520467 3.31775 0.521581 3.29004 0.522461C3.28595 0.522591 3.2824 0.523322 3.2793 0.523438C2.01744 0.747516 0.954099 1.7184 0.575195 3.02832L0.574219 3.03027L0.5 3.28223V17.7246L0.574219 17.9746L0.575195 17.9766C0.926036 19.1882 1.81177 20.074 3.02344 20.4248L3.02539 20.4258L3.27637 20.5H17.7178ZM6.08887 9.99316L4.47852 7.97949L2.86816 5.9668L2.62598 5.66406L2.8584 5.35449L2.94434 5.23926V5.24023C2.99948 5.1645 3.08191 5.0755 3.15625 4.99902C3.24327 4.90952 3.349 4.80578 3.46094 4.7002C3.68359 4.49018 3.9436 4.25887 4.14453 4.09766L4.14648 4.09668C5.53228 2.99326 7.32026 2.25234 9.16113 2.01953C9.81886 1.93623 11.1115 1.93671 11.7812 2.01953L11.7822 2.01855C14.0138 2.28997 15.9407 3.1907 17.5479 4.71484L17.5488 4.71387C17.6535 4.81202 17.7592 4.917 17.8457 5.00684C17.9144 5.07811 17.9968 5.16936 18.0488 5.24023L18.0508 5.23926L18.1367 5.35449L18.3691 5.66406L18.127 5.9668L16.5166 7.97949L14.9062 9.99316L14.7559 10.1807H6.23926L6.08887 9.99316Z" stroke="#2E3750"/>
<path d="M13.2796 4.65159C13.0454 5.01315 12.3223 6.10604 11.6772 7.08389C11.0281 8.06174 10.498 8.87114 10.498 8.88347C10.498 8.89169 10.9788 8.8999 11.5663 8.8999H12.6345L12.6551 8.8054C13.0002 7.34684 13.7397 4.03529 13.7274 4.01886C13.7151 4.01064 13.5138 4.29414 13.2796 4.65159Z" fill="#2E3750"/>
</svg>
