<svg width="23" height="23" viewBox="0 0 23 23" fill="none" xmlns="http://www.w3.org/2000/svg">
<path d="M19.4941 0.123583C19.2923 0.219415 18.4601 1.03146 15.333 4.15859C13.1843 6.30724 11.4392 8.07255 11.4493 8.08264C11.4644 8.09273 12.2815 8.08769 13.2701 8.07255L15.0656 8.04734L18.102 5.09673C20.4726 2.79173 21.1636 2.09065 21.2594 1.89899C21.4258 1.5661 21.4359 1.04659 21.2796 0.728835C21.1636 0.48169 20.8458 0.174021 20.5987 0.0731459C20.3263 -0.042861 19.7916 -0.017642 19.4941 0.123583ZM19.3579 2.81191L19.0956 3.07923L18.7022 2.69086L18.3088 2.30249L18.5711 2.03517L18.8333 1.76785L19.2267 2.15622L19.6202 2.54459L19.3579 2.81191ZM18.1474 4.02241L17.8851 4.28973L17.4917 3.90136L17.0983 3.51299L17.3606 3.24567L17.6228 2.97835L18.0162 3.36672L18.4097 3.75509L18.1474 4.02241ZM16.9369 5.23292L16.6746 5.50024L16.2812 5.11187L15.8878 4.7235L16.1501 4.45618L16.4123 4.18886L16.8057 4.57723L17.1992 4.9656L16.9369 5.23292ZM15.7264 6.44342L15.4641 6.71074L15.0707 6.32237L14.6773 5.934L14.9395 5.66668L15.2018 5.39936L15.5952 5.78773L15.9886 6.1761L15.7264 6.44342ZM14.5159 7.65392L14.2536 7.92124L13.8602 7.53287L13.4668 7.1445L13.729 6.87718L13.9913 6.60986L14.3847 6.99823L14.7781 7.3866L14.5159 7.65392Z" fill="#2E3750"/>
<path d="M9.99639 5.34864C9.79464 5.40412 9.44662 5.5403 9.2146 5.65631C8.82119 5.8631 8.69005 5.97911 6.28418 8.36985C3.50506 11.1338 3.53028 11.1036 3.53028 11.7038C3.53028 12.4805 4.06492 13.0101 4.84166 13.0152C5.45196 13.0152 5.30064 13.1463 9.43149 9.01041L13.1891 5.24776L11.7768 5.25281C10.5562 5.25281 10.3141 5.26794 9.99639 5.34864Z" fill="#2E3750"/>
<path d="M17.5527 6.66049L16.1152 8.0677L17.7443 8.07274H19.3684V8.47624V8.87974H15.3586C11.4194 8.87974 11.3488 8.87974 11.0714 8.98566C9.76005 9.47491 9.76005 11.5126 11.0714 12.0018C11.3438 12.1027 11.4396 12.1078 13.9161 12.1078C15.5604 12.1078 16.5338 12.1279 16.6297 12.1582C16.7154 12.1935 16.9424 12.3952 17.1693 12.6575C18.1277 13.7571 18.9851 14.4632 19.9888 14.9625C20.7605 15.3509 21.7692 15.6434 22.6116 15.7191L22.9999 15.7544V10.4988V5.24823H20.9976L18.9901 5.25328L17.5527 6.66049Z" fill="#2E3750"/>
<path d="M4.62513 14.8716L0 19.4967V21.0502V22.5986H0.146269C0.675864 22.5986 1.76027 22.3011 2.42101 21.9732C3.22801 21.5747 3.5962 21.2822 4.85714 20.0314L6.05252 18.8461V17.9332C6.05252 17.4288 6.07774 16.9496 6.10295 16.8689C6.13322 16.7781 6.98561 15.9156 8.29699 14.6345L10.4456 12.5515L10.1178 12.2488C9.59828 11.7747 9.33096 11.1997 9.33096 10.5592C9.33096 10.3826 9.31583 10.2414 9.29061 10.2414C9.27044 10.2414 7.17223 12.3245 4.62513 14.8716ZM9.27044 12.8995L9.00816 13.1668L8.61475 12.7784L8.22134 12.3901L8.48361 12.1227L8.74589 11.8554L9.1393 12.2438L9.53271 12.6322L9.27044 12.8995ZM8.05993 14.11L7.79766 14.3773L7.40425 13.9889L7.01083 13.6006L7.27311 13.3332L7.53538 13.0659L7.9288 13.4543L8.32221 13.8427L8.05993 14.11ZM5.43213 18.0643C5.40187 18.1551 2.87999 20.3088 2.54206 20.5307C2.16377 20.7879 1.23068 21.262 1.03902 21.2973C0.963359 21.3074 0.923009 21.2469 0.827177 20.9695L0.711171 20.6265L0.862484 20.571C1.19537 20.455 1.90654 20.0768 2.24448 19.8347C2.44118 19.6985 3.13218 19.1184 3.78282 18.5434L4.96811 17.5044L5.20516 17.7667C5.3363 17.913 5.44222 18.0492 5.43213 18.0643Z" fill="#2E3750"/>
<path d="M9.63893 14.3773C8.21155 15.7744 8.11572 15.8803 8.06528 16.1073C7.96945 16.5058 8.10058 17.0101 8.38304 17.3279C8.62009 17.6053 8.9782 17.7566 9.3817 17.7566C9.96173 17.7566 10.0122 17.7213 12.0297 15.6937L13.8454 13.8729L14.1077 14.1352L14.375 14.4025L12.5391 16.2435C10.5115 18.2711 10.4964 18.2913 10.4913 18.8662C10.4913 19.2798 10.6477 19.6329 10.9402 19.88C11.1874 20.0969 11.4345 20.1776 11.833 20.1776C12.3777 20.1776 12.4534 20.1171 14.4507 18.1147L16.2664 16.2939L16.5287 16.5562L16.796 16.8185L14.9349 18.6897C13.6235 20.0061 13.0485 20.6114 12.993 20.7526C12.8922 20.9947 12.8871 21.5848 12.9829 21.8118C13.0838 22.059 13.4117 22.3969 13.6437 22.5028C13.7698 22.5633 13.9665 22.5986 14.1733 22.5986C14.7937 22.5986 14.8037 22.5885 16.6699 20.5156C17.7796 19.2798 18.3798 18.6494 18.4807 18.6141C18.5614 18.5888 19.0909 18.5636 19.671 18.5636C20.5436 18.5636 20.7756 18.5485 21.1034 18.4627C21.6481 18.3266 22.2282 18.0088 22.6468 17.6204L22.9999 17.2926V16.9042V16.5108L22.6165 16.4805C21.0278 16.3444 19.323 15.6382 18.0318 14.579C17.6787 14.2865 17.1441 13.7519 16.6699 13.2071L16.4178 12.9247L13.7849 12.9045L11.1521 12.8894L9.63893 14.3773Z" fill="#2E3750"/>
</svg>
