<svg width="19" height="19" viewBox="0 0 19 19" fill="none" xmlns="http://www.w3.org/2000/svg">
<path d="M6.28878 0.0713921C4.84487 0.539509 4.30423 2.25374 5.21409 3.4537L5.46463 3.78995L5.10201 3.96797C4.69982 4.16577 3.97457 4.8119 3.757 5.16134C3.59876 5.42507 3.62513 5.67561 3.83612 5.78769C4.05369 5.89978 4.25149 5.80747 4.51521 5.47122C5.05586 4.77234 5.77451 4.41631 6.81624 4.324C8.02939 4.21851 8.71508 3.71743 9.00518 2.71526C9.30187 1.7065 8.76783 0.592255 7.79863 0.157104C7.40963 -0.00772619 6.67119 -0.0538788 6.28878 0.0713921ZM7.48875 0.895542C8.4975 1.35047 8.58322 2.70208 7.64039 3.32184C7.40963 3.48007 7.29754 3.50645 6.92832 3.50645C6.55911 3.50645 6.44702 3.48007 6.21626 3.32184C5.47123 2.83394 5.32618 1.89771 5.89319 1.25157C6.15692 0.95488 6.54592 0.770271 6.92832 0.770271C7.09315 0.770271 7.3437 0.82961 7.48875 0.895542Z" fill="#2E3750"/>
<path d="M11.4305 0.467072C10.3163 0.829698 9.67016 2.00988 9.98663 3.10435C10.2965 4.15267 10.9624 4.62738 12.2745 4.72628C12.9206 4.77243 13.0591 4.8054 13.481 5.01638C13.8107 5.17461 14.0744 5.37241 14.3315 5.64932C14.7205 6.0647 14.8458 6.11085 15.0898 5.93942C15.3403 5.76141 15.281 5.51087 14.8788 5.07572C14.5887 4.75924 13.9228 4.28453 13.6261 4.17904C13.5865 4.15926 13.6195 4.08014 13.6986 3.99443C13.7777 3.90872 13.9228 3.67137 14.0217 3.47357C14.1865 3.16369 14.2129 3.03183 14.2129 2.55052C14.2129 2.06922 14.1865 1.93735 14.0283 1.62088C13.8173 1.17914 13.3689 0.750579 12.9404 0.552783C12.5514 0.387954 11.8129 0.341801 11.4305 0.467072ZM12.5844 1.27144C13.5865 1.68681 13.7513 2.99227 12.881 3.64499C12.2019 4.15926 11.2262 3.92191 10.8372 3.14391C10.2767 2.04285 11.4371 0.790139 12.5844 1.27144Z" fill="#2E3750"/>
<path d="M8.85994 4.81853C7.29736 5.3262 6.83583 7.19867 7.96986 8.4316L8.1281 8.60302L7.85778 8.74148C7.46218 8.94587 6.90836 9.53266 6.671 10.0008C6.42046 10.515 6.40727 10.7524 6.63144 10.8975C6.90836 11.0821 7.06659 10.9766 7.3501 10.4293C7.63361 9.87551 7.94349 9.56563 8.5105 9.29531C8.82698 9.13707 8.95225 9.11729 9.49948 9.11729C10.0467 9.11729 10.172 9.13707 10.4885 9.29531C11.0555 9.56563 11.3654 9.87551 11.6489 10.4293C11.9324 10.9766 12.0906 11.0821 12.3675 10.8975C12.5917 10.7524 12.5785 10.515 12.328 10.0008C12.0906 9.53266 11.5368 8.94587 11.1412 8.74148L10.8709 8.60302L11.0291 8.4316C11.6884 7.71294 11.8467 6.75693 11.4445 5.93937C11.2467 5.53059 10.7917 5.09544 10.3698 4.90424C9.98079 4.73941 9.24235 4.69326 8.85994 4.81853ZM10.0599 5.64268C11.0687 6.09761 11.1544 7.44921 10.2115 8.06897C9.98079 8.22721 9.8687 8.25358 9.49948 8.25358C9.13026 8.25358 9.01818 8.22721 8.78742 8.06897C8.04239 7.58108 7.89734 6.64484 8.46435 5.99871C8.72808 5.70201 9.11708 5.51741 9.49948 5.51741C9.66431 5.51741 9.91485 5.57674 10.0599 5.64268Z" fill="#2E3750"/>
<path d="M1.6005 5.25344C1.42248 5.35893 1.28402 5.60288 0.796128 6.61823C0.466469 7.29733 0.156588 7.99621 0.103843 8.18082C-0.0346143 8.64893 -0.0346143 11.6554 0.103843 12.1961C0.275266 12.862 0.499435 13.1851 2.04884 15.0246C2.87958 16.0135 3.56527 16.8641 3.56527 16.9036C3.56527 16.963 3.42681 16.9893 3.10375 16.9893C2.42465 16.9893 2.3785 17.0553 2.3785 17.9651C2.3785 18.7497 2.45761 18.9673 2.74771 18.9673C3.04441 18.9673 3.16968 18.7563 3.16968 18.242V17.7805H5.54323H7.91678V18.2288C7.91678 18.7629 8.02886 18.9673 8.31237 18.9673C8.63544 18.9673 8.70796 18.7761 8.70796 17.9651C8.70796 17.1278 8.63544 16.9893 8.18051 16.9893H7.91678V15.3212C7.91678 13.5213 7.85085 13.04 7.55415 12.5389C7.46844 12.3939 6.61792 11.4972 5.66191 10.5544C4.00042 8.90607 3.91471 8.82695 3.58505 8.74783C3.39385 8.70827 3.23561 8.63575 3.23561 8.58959C3.23561 8.55004 3.32792 8.20719 3.43341 7.82478C3.75647 6.70394 3.67735 6.13033 3.13671 5.65562C2.84002 5.39849 2.25322 5.12157 1.99609 5.12157C1.89719 5.12157 1.71918 5.18091 1.6005 5.25344ZM2.29938 6.03803C2.58948 6.18967 2.74112 6.34132 2.84002 6.59845C2.89936 6.75669 2.87299 6.92811 2.67519 7.64017C2.54992 8.10829 2.44443 8.56982 2.44443 8.66212C2.44443 8.7808 2.36531 8.90607 2.1807 9.06431C1.78511 9.40056 1.62687 9.75 1.62687 10.2643C1.62687 10.5478 1.66643 10.7719 1.74555 10.9236C1.90379 11.2269 3.76307 13.0993 3.90812 13.0993C4.22459 13.0993 4.41579 12.8158 4.28393 12.5521C4.24437 12.473 3.79603 11.9851 3.28176 11.4708L2.35872 10.5346L2.39827 10.2247C2.46421 9.62473 3.09056 9.28847 3.57846 9.59176C3.94768 9.82252 6.76297 12.7103 6.93439 13.0334C7.08604 13.3235 7.09263 13.3828 7.11241 15.1564L7.13219 16.9893H5.74762H4.35645V16.7718C4.35645 16.5871 4.13888 16.297 2.77409 14.6817C1.86423 13.5938 1.1126 12.651 1.0137 12.44L0.829094 12.0774L0.809315 10.2709L0.789535 8.46432L1.39611 7.19184C1.72577 6.48637 2.01587 5.91276 2.02906 5.91276C2.04224 5.91276 2.16092 5.9721 2.29938 6.03803Z" fill="#2E3750"/>
<path d="M16.3765 5.31961C15.948 5.53059 15.6051 5.86025 15.4601 6.21628C15.315 6.55913 15.348 7.07999 15.5656 7.8448C15.6777 8.2338 15.7634 8.57665 15.7634 8.60961C15.7634 8.64258 15.6645 8.69532 15.5524 8.7151C15.4337 8.74148 15.2293 8.82059 15.104 8.87993C14.8139 9.03158 11.5305 12.3348 11.3855 12.6183C11.1415 13.1062 11.0822 13.6073 11.0822 15.3215V16.9896H10.8185C10.3635 16.9896 10.291 17.128 10.291 17.9785C10.291 18.6181 10.3042 18.717 10.4229 18.8357C10.5877 19.0005 10.7855 19.0005 10.9503 18.8357C11.0558 18.7302 11.0822 18.6181 11.0822 18.2423V17.7807H13.4557H15.8293V18.2423C15.8293 18.6181 15.8557 18.7302 15.9612 18.8357C16.1194 18.9939 16.2776 19.0005 16.4754 18.862C16.6139 18.7697 16.6205 18.7104 16.6205 18.0049C16.6205 17.0489 16.5809 16.9896 15.8886 16.9896C15.5128 16.9896 15.4271 16.9698 15.4469 16.8907C15.4601 16.8379 16.1194 16.0204 16.9172 15.0709C18.4402 13.271 18.7237 12.8556 18.8885 12.2095C19.0336 11.6557 19.0402 8.66236 18.8951 8.18105C18.8424 7.99644 18.5325 7.29757 18.2029 6.61847C17.4314 5.01632 17.26 4.89764 16.3765 5.31961ZM17.5831 7.14592L18.1699 8.37226V10.2249V12.0776L17.9853 12.4403C17.8864 12.6512 17.1348 13.5941 16.2249 14.6819C14.8601 16.2973 14.6425 16.5874 14.6425 16.772V16.9896H13.2514H11.8668L11.8866 15.1896C11.9063 13.4886 11.9129 13.3765 12.058 13.0732C12.1635 12.8359 12.5854 12.3677 13.6667 11.2799C14.4711 10.4689 15.2425 9.72386 15.381 9.63156C15.8886 9.27552 16.5348 9.592 16.6007 10.2249L16.6403 10.5348L15.7172 11.4711C15.2029 11.9853 14.7546 12.4732 14.715 12.5523C14.5832 12.8161 14.7744 13.0996 15.0909 13.0996C15.2359 13.0996 17.0952 11.2271 17.2534 10.9238C17.3325 10.7722 17.3721 10.548 17.3721 10.2645C17.3721 9.75023 17.2139 9.40079 16.8183 9.06454C16.6337 8.90631 16.5546 8.78103 16.5546 8.66236C16.5546 8.56346 16.4491 8.10853 16.3238 7.64701C16.0732 6.73055 16.0798 6.53275 16.3765 6.26243C16.515 6.13716 16.871 5.91959 16.9567 5.91299C16.9765 5.91299 17.26 6.46682 17.5831 7.14592Z" fill="#2E3750"/>
</svg>
