<svg width="23" height="23" viewBox="0 0 23 23" fill="none" xmlns="http://www.w3.org/2000/svg">
<path d="M19.4941 0.373095C19.2923 0.468926 18.4601 1.28097 15.333 4.40811C13.1843 6.55675 11.4392 8.32207 11.4493 8.33215C11.4644 8.34224 12.2815 8.3372 13.2701 8.32207L15.0656 8.29685L18.102 5.34625C20.4726 3.04125 21.1636 2.34016 21.2594 2.1485C21.4258 1.81561 21.4359 1.2961 21.2796 0.978347C21.1636 0.731202 20.8458 0.423533 20.5987 0.322658C20.3263 0.206651 19.7916 0.23187 19.4941 0.373095ZM19.3579 3.06142L19.0956 3.32874L18.7022 2.94037L18.3088 2.552L18.5711 2.28468L18.8333 2.01736L19.2267 2.40573L19.6202 2.7941L19.3579 3.06142ZM18.1474 4.27192L17.8851 4.53924L17.4917 4.15087L17.0983 3.7625L17.3606 3.49518L17.6228 3.22787L18.0162 3.61624L18.4097 4.0046L18.1474 4.27192ZM16.9369 5.48243L16.6746 5.74975L16.2812 5.36138L15.8878 4.97301L16.1501 4.70569L16.4123 4.43837L16.8057 4.82674L17.1992 5.21511L16.9369 5.48243ZM15.7264 6.69293L15.4641 6.96025L15.0707 6.57188L14.6773 6.18351L14.9395 5.91619L15.2018 5.64887L15.5952 6.03724L15.9886 6.42561L15.7264 6.69293ZM14.5159 7.90343L14.2536 8.17075L13.8602 7.78238L13.4668 7.39401L13.729 7.12669L13.9913 6.85938L14.3847 7.24775L14.7781 7.63611L14.5159 7.90343Z" fill="#2E3750"/>
<path d="M9.99639 5.59839C9.79464 5.65387 9.44662 5.79006 9.2146 5.90606C8.82119 6.11286 8.69005 6.22886 6.28418 8.61961C3.50506 11.3836 3.53028 11.3533 3.53028 11.9535C3.53028 12.7303 4.06492 13.2599 4.84166 13.2649C5.45196 13.2649 5.30064 13.3961 9.43149 9.26017L13.1891 5.49752L11.7768 5.50256C10.5562 5.50256 10.3141 5.51769 9.99639 5.59839Z" fill="#2E3750"/>
<path d="M17.5527 6.91L16.1152 8.31721L17.7443 8.32225H19.3684V8.72575V9.12926H15.3586C11.4194 9.12926 11.3488 9.12926 11.0714 9.23517C9.76005 9.72442 9.76005 11.7621 11.0714 12.2513C11.3438 12.3522 11.4396 12.3573 13.9161 12.3573C15.5604 12.3573 16.5338 12.3774 16.6297 12.4077C16.7154 12.443 16.9424 12.6448 17.1693 12.907C18.1277 14.0066 18.9851 14.7127 19.9888 15.212C20.7605 15.6004 21.7692 15.8929 22.6116 15.9686L22.9999 16.0039V10.7483V5.49774H20.9976L18.9901 5.50279L17.5527 6.91Z" fill="#2E3750"/>
<path d="M4.62513 15.1211L0 19.7462V21.2997V22.8481H0.146269C0.675864 22.8481 1.76027 22.5506 2.42101 22.2227C3.22801 21.8243 3.5962 21.5317 4.85714 20.2809L6.05252 19.0956V18.1827C6.05252 17.6783 6.07774 17.1991 6.10295 17.1184C6.13322 17.0276 6.98561 16.1652 8.29699 14.884L10.4456 12.801L10.1178 12.4983C9.59828 12.0242 9.33096 11.4492 9.33096 10.8087C9.33096 10.6321 9.31583 10.4909 9.29061 10.4909C9.27044 10.4909 7.17223 12.574 4.62513 15.1211ZM9.27044 13.149L9.00816 13.4163L8.61475 13.0279L8.22134 12.6396L8.48361 12.3722L8.74589 12.1049L9.1393 12.4933L9.53271 12.8817L9.27044 13.149ZM8.05993 14.3595L7.79766 14.6268L7.40425 14.2384L7.01083 13.8501L7.27311 13.5827L7.53538 13.3154L7.9288 13.7038L8.32221 14.0922L8.05993 14.3595ZM5.43213 18.3138C5.40187 18.4046 2.87999 20.5583 2.54206 20.7802C2.16377 21.0374 1.23068 21.5115 1.03902 21.5469C0.963359 21.5569 0.923009 21.4964 0.827177 21.219L0.711171 20.876L0.862484 20.8206C1.19537 20.7045 1.90654 20.3263 2.24448 20.0842C2.44118 19.948 3.13218 19.3679 3.78282 18.793L4.96811 17.7539L5.20516 18.0162C5.3363 18.1625 5.44222 18.2987 5.43213 18.3138Z" fill="#2E3750"/>
<path d="M9.63893 14.6268C8.21155 16.0239 8.11572 16.1298 8.06528 16.3568C7.96945 16.7553 8.10058 17.2597 8.38304 17.5774C8.62009 17.8548 8.9782 18.0061 9.3817 18.0061C9.96173 18.0061 10.0122 17.9708 12.0297 15.9432L13.8454 14.1224L14.1077 14.3847L14.375 14.652L12.5391 16.493C10.5115 18.5206 10.4964 18.5408 10.4913 19.1158C10.4913 19.5293 10.6477 19.8824 10.9402 20.1296C11.1874 20.3464 11.4345 20.4271 11.833 20.4271C12.3777 20.4271 12.4534 20.3666 14.4507 18.3642L16.2664 16.5434L16.5287 16.8057L16.796 17.068L14.9349 18.9392C13.6235 20.2556 13.0485 20.8609 12.993 21.0021C12.8922 21.2442 12.8871 21.8343 12.9829 22.0613C13.0838 22.3085 13.4117 22.6464 13.6437 22.7523C13.7698 22.8128 13.9665 22.8481 14.1733 22.8481C14.7937 22.8481 14.8037 22.8381 16.6699 20.7651C17.7796 19.5293 18.3798 18.8989 18.4807 18.8636C18.5614 18.8384 19.0909 18.8131 19.671 18.8131C20.5436 18.8131 20.7756 18.798 21.1034 18.7123C21.6481 18.5761 22.2282 18.2583 22.6468 17.8699L22.9999 17.5421V17.1537V16.7603L22.6165 16.7301C21.0278 16.5939 19.323 15.8877 18.0318 14.8286C17.6787 14.536 17.1441 14.0014 16.6699 13.4567L16.4178 13.1742L13.7849 13.154L11.1521 13.1389L9.63893 14.6268Z" fill="#2E3750"/>
</svg>
