<svg width="19" height="19" viewBox="0 0 19 19" fill="none" xmlns="http://www.w3.org/2000/svg">
<path d="M7.31712 0.0752811C7.06725 0.24929 7.07196 0.155231 7.07196 3.7624V7.10151H3.6727H0.273449L0.136725 7.23789L0 7.37428V9.44828C0 10.8357 0.0188586 11.5552 0.051861 11.6305C0.0801489 11.6916 0.160298 11.7763 0.235732 11.8186C0.353598 11.8891 0.678908 11.8985 3.71985 11.8985H7.07196L7.08139 15.2706C7.09553 18.5626 7.09553 18.652 7.18983 18.7743C7.24169 18.8448 7.34541 18.9248 7.42084 18.953C7.50571 18.9812 8.27419 19 9.50943 19C11.1926 19 11.4896 18.9906 11.6216 18.9248C11.9375 18.7743 11.928 18.9012 11.928 15.2188V11.8985H15.299H18.6653L18.835 11.7527L19 11.6069V9.49061V7.37428L18.8633 7.23789L18.7266 7.10151H15.3273H11.928V3.7624C11.928 0.888893 11.9186 0.399786 11.8573 0.282211C11.7065 -0.00937271 11.7772 3.43323e-05 9.5 3.43323e-05C7.69429 3.43323e-05 7.41141 0.00943947 7.31712 0.0752811Z" fill="#2E3750"/>
</svg>
